<?xml version="1.0" standalone="yes"?><!DOCTYPE svg PUBLIC "-//W3C//DTD SVG 1.1//EN" "http://www.w3.org/Graphics/SVG/1.1/DTD/svg11.dtd"[
<!ENTITY E3 'stroke:none;opacity:1;fill:rgb(68,154,223);'><!ENTITY E28 'matrix(1.00 0.00 0.00 1.00 84.00 4.00 ) '><!ENTITY E10 'matrix(1.00 0.00 0.00 1.00 0.00 0.00 ) '><!ENTITY E11 'matrix(1.00 0.00 0.00 1.00 484.00 84.00 ) '><!ENTITY E5 'stroke:none;fill-rule:evenodd;opacity:1;fill:rgb(255,255,255);'><!ENTITY E2 'matrix(1.00 0.00 0.00 1.00 484.00 4.00 ) '><!ENTITY E7 'M 5.5001 19.484 10.6493 19.484 16.2743 10.2485 19.3728 10.2485 M 14.6769 17.1481 16.3089 19.4828 19.2202 19.4828 M 5.500199 10.2437 10.7586 10.2437 12.1652 12.8707 '><!ENTITY E4 'M 19.156 13.888 19.156 10.3647 19.156 6.841399 25.2585 10.3647 22.2072 12.1264 z '><!ENTITY E6 'M 19.156 22.97 19.156 19.4467 19.156 15.9234 25.2585 19.4467 22.2072 21.2084 z '><!ENTITY E8 'stroke:rgb(255,255,255);fill:none;stroke-linecap:butt;stroke-miterlimit:9;opacity:1;stroke-width:2;stroke-linejoin:miter;'><!ENTITY E1 'stroke:rgb(169,169,169);fill:none;stroke-linecap:butt;stroke-miterlimit:9;opacity:1;stroke-width:1;stroke-linejoin:miter;'><!ENTITY E33 'matrix(1.00 0.00 0.00 1.00 4.00 4.00 ) '><!ENTITY E19 'stroke:none;opacity:1;fill:rgb(255,255,255);'><!ENTITY E26 'matrix(1.00 0.00 0.00 1.00 164.00 4.00 ) '><!ENTITY E21 'matrix(1.00 0.00 0.00 1.00 324.00 4.00 ) '><!ENTITY E23 'matrix(1.00 0.00 0.00 1.00 244.00 4.00 ) '><!ENTITY E18 'M 18.422 13 13.4357 18.5006 10.8556 15.9868 6.500101 20.5001 23.9571 20.48582 z '><!ENTITY E13 'matrix(1.00 0.00 0.00 1.00 484.00 164.00 ) '><!ENTITY E17 'matrix(1.00 0.00 0.00 1.00 404.00 4.00 ) '><!ENTITY E15 'matrix(1.00 0.00 0.00 1.00 484.00 244.00 ) '><!ENTITY E32 'stroke:rgb(169,169,169);fill:none;stroke-linecap:butt;stroke-miterlimit:9;opacity:1;stroke-width:2;stroke-linejoin:miter;'>
]><svg width="546.046" height="292.8252" id="SvgGdi_output" xmlns="http://www.w3.org/2000/svg"><rect id="background" height="100.00%" style="fill:rgb(255,255,255);" width="100.00%" y="0.00" x="0.00" /><g style="shape-rendering:auto;" id="root_group"><line y1="19.00" style="&E1;" id="69" x2="480.00" y2="19.00" x1="438.00" /><line y1="19.00" style="&E1;" id="70" x2="480.00" y2="99.00" x1="438.00" /><line y1="19.00" style="&E1;" id="71" x2="480.00" y2="179.00" x1="438.00" /><line y1="259.00" style="&E1;" id="72" x2="480.00" y2="259.00" x1="438.00" /><line y1="19.00" style="&E1;" id="73" x2="400.00" y2="19.00" x1="358.00" /><line y1="259.00" style="&E1;" id="74" x2="400.00" y2="259.00" x1="358.00" /><line y1="19.00" style="&E1;" id="75" x2="320.00" y2="19.00" x1="278.00" /><line y1="19.00" style="&E1;" id="76" x2="320.00" y2="259.00" x1="278.00" /><line y1="19.00" style="&E1;" id="77" x2="240.00" y2="19.00" x1="198.00" /><line y1="19.00" style="&E1;" id="78" x2="160.00" y2="19.00" x1="118.00" /><line y1="19.00" style="&E1;" id="79" x2="80.00" y2="19.00" x1="38.00" /><ellipse id="80" cy="15.00" cx="15.00" transform="&E2;" rx="15.00" ry="15.00" style="&E3;" /><path d="&E4;" style="&E5;" transform="&E2;" id="81" /><path d="&E6;" style="&E5;" transform="&E2;" id="82" /><path d="&E7;" style="&E8;" transform="&E2;" id="83" /><text id="84" transform="&E10;" x="484.00" y="39.00" style="stroke:none;clip-path:url(#86_text_clipper);font-family:Microsoft Sans Serif;fill:rgb(0,0,0);font-size:8.25pt;opacity:1;"><tspan dy="8.25pt" id="88">Name</tspan></text><ellipse id="90" cy="15.00" cx="15.00" transform="&E11;" rx="15.00" ry="15.00" style="&E3;" /><path d="&E4;" style="&E5;" transform="&E11;" id="91" /><path d="&E6;" style="&E5;" transform="&E11;" id="92" /><path d="&E7;" style="&E8;" transform="&E11;" id="93" /><text id="94" transform="&E10;" x="484.00" y="119.00" style="stroke:none;clip-path:url(#96_text_clipper);font-family:Microsoft Sans Serif;fill:rgb(0,0,0);font-size:8.25pt;opacity:1;"><tspan dy="8.25pt" id="98">Position</tspan></text><ellipse id="100" cy="15.00" cx="15.00" transform="&E13;" rx="15.00" ry="15.00" style="&E3;" /><path d="&E4;" style="&E5;" transform="&E13;" id="101" /><path d="&E6;" style="&E5;" transform="&E13;" id="102" /><path d="&E7;" style="&E8;" transform="&E13;" id="103" /><text id="104" transform="&E10;" x="484.00" y="199.00" style="stroke:none;clip-path:url(#106_text_clipper);font-family:Microsoft Sans Serif;fill:rgb(0,0,0);font-size:8.25pt;opacity:1;"><tspan dy="8.25pt" id="108">Confidence</tspan></text><ellipse id="110" cy="15.00" cx="15.00" transform="&E15;" rx="15.00" ry="15.00" style="&E3;" /><path d="&E4;" style="&E5;" transform="&E15;" id="111" /><path d="&E6;" style="&E5;" transform="&E15;" id="112" /><path d="&E7;" style="&E8;" transform="&E15;" id="113" /><text id="114" transform="&E10;" x="484.00" y="279.00" style="stroke:none;clip-path:url(#116_text_clipper);font-family:Microsoft Sans Serif;fill:rgb(0,0,0);font-size:8.25pt;opacity:1;"><tspan dy="8.25pt" id="118">IdName</tspan></text><ellipse id="120" cy="15.00" cx="15.00" transform="&E17;" rx="15.00" ry="15.00" style="&E3;" /><path d="&E18;" style="&E5;" transform="&E17;" id="121" /><ellipse id="122" cy="10.96" cx="10.92" transform="&E17;" rx="2.75" ry="2.75" style="&E19;" /><text id="123" transform="&E10;" x="404.00" y="39.00" style="stroke:none;clip-path:url(#125_text_clipper);font-family:Microsoft Sans Serif;fill:rgb(0,0,0);font-size:8.25pt;opacity:1;"><tspan dy="8.25pt" id="127">GetBodyPart</tspan></text><line y1="259.00" style="&E1;" id="129" x2="438.00" y2="259.00" x1="400.00" /><ellipse id="130" cy="15.00" cx="15.00" transform="&E21;" rx="15.00" ry="15.00" style="&E3;" /><path d="&E4;" style="&E5;" transform="&E21;" id="131" /><path d="&E6;" style="&E5;" transform="&E21;" id="132" /><path d="&E7;" style="&E8;" transform="&E21;" id="133" /><text id="134" transform="&E10;" x="324.00" y="39.00" style="stroke:none;clip-path:url(#136_text_clipper);font-family:Microsoft Sans Serif;fill:rgb(0,0,0);font-size:8.25pt;opacity:1;"><tspan dy="8.25pt" id="138">Pose</tspan></text><line y1="259.00" style="&E1;" id="140" x2="358.00" y2="259.00" x1="320.00" /><ellipse id="141" cy="15.00" cx="15.00" transform="&E23;" rx="15.00" ry="15.00" style="&E3;" /><path style="&E8;" transform="&E23;" id="142" d="M 16.849 10.062 23.4027 10.062 M 16.6038 19.6084 23.3505 19.6084 M 12.3075 17.1615 7.5719 21.8971 M 7.577335 17.152 12.31704 21.8917 M 6.564136 10.0047 13.30904 10.0047 M 9.936636 6.6288 9.936636 13.3806 " /><ellipse id="143" cy="16.33" cx="19.93" transform="&E23;" rx="1.30" ry="1.30" style="&E19;" /><ellipse id="144" cy="22.83" cx="19.93" transform="&E23;" rx="1.30" ry="1.30" style="&E19;" /><text id="145" transform="&E10;" x="244.00" y="39.00" style="stroke:none;clip-path:url(#147_text_clipper);font-family:Microsoft Sans Serif;fill:rgb(0,0,0);font-size:8.25pt;opacity:1;"><tspan dy="8.25pt" id="149">Index</tspan></text><ellipse id="151" cy="15.00" cx="15.00" transform="&E26;" rx="15.00" ry="15.00" style="&E3;" /><path d="&E18;" style="&E5;" transform="&E26;" id="152" /><ellipse id="153" cy="10.96" cx="10.92" transform="&E26;" rx="2.75" ry="2.75" style="&E19;" /><text id="154" transform="&E10;" x="164.00" y="39.00" style="stroke:none;clip-path:url(#156_text_clipper);font-family:Microsoft Sans Serif;fill:rgb(0,0,0);font-size:8.25pt;opacity:1;"><tspan dy="8.25pt" id="158">GetIdedPose</tspan></text><ellipse id="160" cy="15.00" cx="15.00" transform="&E28;" rx="15.00" ry="15.00" style="&E3;" /><path d="&E18;" style="&E5;" transform="&E28;" id="161" /><ellipse id="162" cy="10.96" cx="10.92" transform="&E28;" rx="2.75" ry="2.75" style="&E19;" /><text id="163" transform="&E10;" x="84.00" y="39.00" style="stroke:none;clip-path:url(#165_text_clipper);font-family:Microsoft Sans Serif;fill:rgb(0,0,0);font-size:8.25pt;opacity:1;"><tspan dy="8.25pt" id="167">PredictFull</tspan></text><text id="169" transform="&E10;" x="84.00" y="51.45" style="stroke:none;clip-path:url(#171_text_clipper);font-family:Microsoft Sans Serif;fill:rgb(0,0,0);font-size:8.25pt;opacity:1;"><tspan dy="8.25pt" id="173">ModelPose</tspan></text><path style="&E32;" transform="&E33;" id="175" d="M 31.179 5.2 C 34.9985 11.0918 34.9814 18.682 31.13552 24.557 " /><ellipse id="176" cy="15.00" cx="15.00" transform="&E33;" rx="15.00" ry="15.00" style="stroke:none;opacity:1;fill:rgb(91,178,126);" /><path style="&E5;" transform="&E33;" id="177" d="M 23.75 9.1 19.5587 11.5211 19.5587 18.3937 23.75 20.8147 z " /><path style="&E5;" transform="&E33;" id="178" d="M 8.6927 9.2 15.7194 9.2 C 17.19 9.2 18.3739 10.4337 18.3739 11.9661 L 18.3739 17.8234 C 18.3739 19.3558 17.19 20.5893 15.7194 20.5893 L 8.692701 20.5893 C 7.222101 20.5893 6.038201 19.3558 6.038201 17.8234 L 6.038201 11.9661 C 6.038201 10.4337 7.222101 9.199999 8.692701 9.199999 z " /><ellipse id="179" cy="19.00" cx="4.00" rx="3.00" ry="3.00" style="&E32;" /><ellipse id="180" cy="19.00" cx="4.00" rx="3.00" ry="3.00" style="&E19;" /><text id="181" transform="&E10;" x="4.00" y="39.00" style="stroke:none;clip-path:url(#183_text_clipper);font-family:Microsoft Sans Serif;fill:rgb(0,0,0);font-size:8.25pt;opacity:1;"><tspan dy="8.25pt" id="185">FileCapture</tspan></text></g><defs id="clips_hatches_and_gradients"><clipPath id="86_text_clipper"><rect x="484.00" y="39.00" width="33.88" height="13.83" id="87" /></clipPath><clipPath id="96_text_clipper"><rect x="484.00" y="119.00" width="44.11" height="13.83" id="97" /></clipPath><clipPath id="106_text_clipper"><rect x="484.00" y="199.00" width="61.05" height="13.83" id="107" /></clipPath><clipPath id="116_text_clipper"><rect x="484.00" y="279.00" width="43.33" height="13.83" id="117" /></clipPath><clipPath id="125_text_clipper"><rect x="404.00" y="39.00" width="68.53" height="13.83" id="126" /></clipPath><clipPath id="136_text_clipper"><rect x="324.00" y="39.00" width="29.49" height="13.83" id="137" /></clipPath><clipPath id="147_text_clipper"><rect x="244.00" y="39.00" width="31.38" height="13.83" id="148" /></clipPath><clipPath id="156_text_clipper"><rect x="164.00" y="39.00" width="69.80" height="13.83" id="157" /></clipPath><clipPath id="165_text_clipper"><rect x="84.00" y="39.00" width="60.41" height="27.65" id="166" /></clipPath><clipPath id="171_text_clipper"><rect x="84.00" y="51.45" width="60.41" height="27.65" id="172" /></clipPath><clipPath id="183_text_clipper"><rect x="4.00" y="39.00" width="62.36" height="13.83" id="184" /></clipPath></defs></svg>