<?xml version="1.0" encoding="utf-8"?>
<!-- Generator: Adobe Illustrator 24.1.2, SVG Export Plug-In . SVG Version: 6.00 Build 0)  -->
<svg version="1.1" id="Layer_1" xmlns="http://www.w3.org/2000/svg" xmlns:xlink="http://www.w3.org/1999/xlink" x="0px" y="0px"
	 viewBox="0 0 607 245.1" style="enable-background:new 0 0 607 245.1;" xml:space="preserve">
<style type="text/css">
	.st0{fill:#333333;}
	.st1{fill:#EC2227;}
	.st2{fill:#FFFFFF;}
	.st3{fill:none;stroke:#228CDB;stroke-width:11.957;stroke-miterlimit:10;}
	.st4{fill:#228CDB;}
	.st5{fill:none;stroke:#1A936F;stroke-width:11.957;stroke-miterlimit:10;}
	.st6{fill:#1A936F;}
	.st7{fill:none;stroke:#9A61BD;stroke-width:11.957;stroke-miterlimit:10;}
	.st8{fill:#9A61BD;}
	.st9{fill:none;stroke:#F28118;stroke-width:11.957;stroke-miterlimit:10;}
	.st10{fill:#F28118;}
	.st11{fill:none;stroke:#FE938C;stroke-width:11.957;stroke-miterlimit:10;}
	.st12{fill:#FE938C;}
	.st13{fill:none;stroke:#D80032;stroke-width:11.957;stroke-miterlimit:10;}
	.st14{fill:#D80032;}
	.st15{fill:none;stroke:#7EBCE6;stroke-width:11.957;stroke-miterlimit:10;}
	.st16{fill:#7EBCE6;}
	.st17{fill:none;stroke:#95C149;stroke-width:11.957;stroke-miterlimit:10;}
	.st18{fill:#95C149;}
</style>
<g>
	<g id="BG_square_shadow">
		
			<image style="overflow:visible;opacity:0.75;enable-background:new    ;" width="3046" height="1230" xlink:href="DC723EC0.png"  transform="matrix(0.1993 0 0 0.1993 0 0)">
		</image>
		<path class="st0" d="M46,34.2H561c6.6,0,11.9,5.3,11.9,11.9v153c0,6.6-5.3,11.9-11.9,11.9H46c-6.6,0-11.9-5.3-11.9-11.9V46
			C34.2,39.5,39.5,34.2,46,34.2z"/>
		<path class="st0" d="M561,35c6.1,0,11,4.9,11,11v153c0,6.1-4.9,11-11,11H46c-6.1,0-11-4.9-11-11V46C35,40,40,35,46,35H561
			 M561,33.3H46c-7,0-12.8,5.7-12.8,12.8l0,0v153c0,7,5.7,12.8,12.8,12.8H561c7,0,12.8-5.7,12.8-12.8V46C573.7,39,568,33.3,561,33.3
			z"/>
		<g id="layer2">
			<g id="g45">
				<circle id="path1206" class="st1" cx="104" cy="123.9" r="48.4"/>
				<path id="path1082" class="st2" d="M95.2,86.3c-5.2,0-9.6,3.7-10.7,8.7c-2.6-1.4-5.8-0.5-7.2,2.1c-1.4,2.6-0.5,5.8,2.1,7.2
					c2.2,1.2,5,0.7,6.6-1.2c1.2,1.9,3,3.4,5.1,4.2c0,0.1,0,0.1,0,0.2c-4.5-2.8-10.4-1.5-13.2,3c-1,1.5-1.5,3.3-1.5,5.1
					c0,0.1,0,0.2,0,0.3c-3.9-1.1-7.9,1.2-9,5.1c-0.5,2-0.2,4.1,0.9,5.8c-1.9,1.2-2.4,3.7-1.2,5.5c1.2,1.9,3.7,2.4,5.5,1.2
					c1.1-0.7,1.8-2,1.8-3.3c0.9,0,1.9-0.2,2.7-0.5c1.9-0.5,6.5-1.5,10.7-0.2c3.6,1.1,6.4,4.7,6.5,4.8c1.5,3.2,6.4,5.4,6.6,7.5
					c0.6,6.4-13.8,8.6-22,10.9c14.4,12.1,35.4,11.8,49.8-0.3c0,0-16.2-2.1-19.4-11.2c-2.5-6.8-8.5-7.6-8.5-10c0-3.8,6.4-3.9,6.6-8.7
					c0-0.6-0.1-1.1-0.2-1.7c2-0.2,3.9-0.9,5.5-2.2c0,0,0,0.1,0.1,0.1c-1.9,1.5-2.2,4.2-0.8,6.2s4.2,2.2,6.2,0.8
					c0.4-0.3,0.8-0.7,1.1-1.2c6.1,2.2,12.8-0.9,15-7c0.2-0.6,0.4-1.2,0.5-1.7c2.8-0.4,4.7-3.1,4.3-5.9c-0.4-2.8-3.1-4.7-5.9-4.3
					c-0.4,0.1-0.7,0.2-1.1,0.3c-4.2-4.9-11.6-5.4-16.5-1.1c-0.1,0.1-0.3,0.3-0.4,0.4c-1.4-2.2-3.6-3.8-6.1-4.5
					c2.2-1.1,3.1-3.9,2-6.1c-1.1-2.2-3.9-3.1-6.1-2c0,0-0.1,0-0.1,0.1C103.1,88.6,99.3,86.3,95.2,86.3L95.2,86.3z M102.2,120.7
					c0.1,0.3,0.1,0.7,0.1,1c0,2-5.1,3.8-7.3,7.3c-1.4-1.1-3.1-2.2-4.8-2.7c-3-0.9-6.9-0.6-9.1-0.3c0.3-0.6,0.5-1.3,0.6-2
					c4.1,2.1,9.1,0.9,11.9-2.8C96.3,123.1,99.8,122.8,102.2,120.7L102.2,120.7z"/>
			</g>
			<g id="g1052">
				<path id="path1342" class="st2" d="M176.1,160.6l-2.6-6.4h-0.9l3.2,7.5h0.7l3.2-7.5h-0.9L176.1,160.6z"/>
				<path id="path1330" class="st2" d="M181.2,154.2v7.4h0.8v-7.4H181.2z"/>
				<path id="path1350" class="st2" d="M184.8,156.1c0-0.7,0.6-1.2,1.6-1.2c0.8,0,1.5,0.3,2.1,0.8l0.5-0.6c-0.7-0.6-1.7-0.9-2.6-0.9
					c-1.4,0-2.4,0.8-2.4,2c0,1.2,0.8,1.8,2.5,2.2c1.6,0.3,1.9,0.7,1.9,1.4c0,0.7-0.7,1.3-1.7,1.3c-1,0-1.8-0.4-2.5-1l-0.5,0.6
					c0.8,0.8,1.9,1.2,3,1.2c1.5,0,2.5-0.8,2.5-2.1c0-1.1-0.8-1.7-2.4-2.1C185.2,157.2,184.8,156.8,184.8,156.1z"/>
				<path id="path1354" class="st2" d="M197,154.2h-0.8v4.3c0,1.6-0.9,2.4-2.2,2.4c-1.4,0-2.3-0.9-2.3-2.5v-4.3h-0.8v4.3
					c0,2.1,1.3,3.2,3.1,3.2c1.8,0,3.1-1.1,3.1-3.3L197,154.2z"/>
				<path id="path1314" class="st2" d="M202.3,154.2h-0.8l-3.4,7.5h0.9l0.9-2h4l0.9,2h0.9L202.3,154.2z M203.6,159h-3.4l1.7-3.8
					L203.6,159z"/>
				<path id="path1326" class="st2" d="M207.1,161.7h5v-0.8H208v-6.6h-0.8L207.1,161.7z"/>
				<path id="path1406" class="st2" d="M223,161.7l-2.3-3c1.2-0.2,2-0.9,2-2.2c0-1.3-1-2.2-2.7-2.2h-3.2v7.4h0.8v-2.9h2.1l2.2,2.9
					H223z M221.9,156.5c0,1-0.8,1.5-1.9,1.5h-2.3v-3h2.3C221.2,155,221.9,155.6,221.9,156.5L221.9,156.5z"/>
				<path id="path1398" class="st2" d="M229.9,154.2h-5.4v7.4h5.4v-0.8h-4.6v-2.6h4v-0.8h-4V155h4.5V154.2z"/>
				<path id="path1318" class="st2" d="M235.2,154.2h-0.8l-3.4,7.5h0.9l0.9-2h4l0.9,2h0.9L235.2,154.2z M236.5,159h-3.4l1.7-3.8
					L236.5,159z"/>
				<path id="path1418" class="st2" d="M245.9,160.5l-0.6-0.5c-0.7,0.7-1.4,1.1-2.4,1.1c-1.6,0-2.9-1.3-2.9-3.1c0-1.7,1.2-3,2.9-3
					c1,0,1.7,0.4,2.3,1l0.6-0.6c-0.8-0.8-1.8-1.2-2.9-1.2c-2.2,0-3.7,1.7-3.7,3.8s1.6,3.8,3.7,3.8
					C244.3,161.8,245.2,161.3,245.9,160.5z"/>
				<path id="path1386" class="st2" d="M250.2,155h2.5v-0.8h-5.8v0.8h2.5v6.6h0.8V155z"/>
				<path id="path1334" class="st2" d="M254.4,154.2v7.4h0.8v-7.4H254.4z"/>
				<path id="path1346" class="st2" d="M260.3,160.6l-2.6-6.4h-0.9l3.2,7.5h0.7l3.2-7.5H263L260.3,160.6z"/>
				<path id="path1402" class="st2" d="M270.7,154.2h-5.4v7.4h5.4v-0.8h-4.6v-2.6h4v-0.8h-4V155h4.5L270.7,154.2z"/>
				<path id="path1370" class="st2" d="M281.2,156.6c0-1.5-1.1-2.4-2.8-2.4h-2.8v7.4h0.8V159h1.8C279.8,159,281.2,158.2,281.2,156.6
					z M280.3,156.6c0,1-0.8,1.6-2,1.6h-1.8V155h1.9C279.5,155,280.3,155.6,280.3,156.6L280.3,156.6z"/>
				<path id="path1410" class="st2" d="M288.8,161.7l-2.3-3c1.2-0.2,2-0.9,2-2.2c0-1.3-1-2.2-2.7-2.2h-3.2v7.4h0.8v-2.9h2.1l2.2,2.9
					H288.8z M287.7,156.5c0,1-0.8,1.5-1.9,1.5h-2.3v-3h2.3C287,155,287.7,155.6,287.7,156.5z"/>
				<path id="path1366" class="st2" d="M297.6,157.9c0-2.1-1.5-3.8-3.8-3.8c-2.3,0-3.8,1.8-3.8,3.8c0,2.1,1.5,3.8,3.8,3.8
					S297.6,160,297.6,157.9z M296.7,158c0,1.7-1.2,3-2.9,3c-1.7,0-2.9-1.4-2.9-3.1s1.2-3,2.9-3C295.5,154.9,296.7,156.3,296.7,158
					L296.7,158z"/>
				<path id="path1374" class="st2" d="M305.8,160.7v-3h-3.1v0.8h2.3v1.8c-0.6,0.5-1.4,0.7-2.1,0.7c-1.8,0-2.9-1.3-2.9-3.1
					c0-1.7,1.2-3,2.8-3c0.8,0,1.6,0.3,2.3,0.8l0.5-0.6c-0.7-0.6-1.5-1-2.8-1c-2.2,0-3.7,1.8-3.7,3.8c0,2.1,1.4,3.8,3.8,3.8
					C303.9,161.8,305,161.4,305.8,160.7z"/>
				<path id="path1414" class="st2" d="M313.8,161.7l-2.3-3c1.2-0.2,2-0.9,2-2.2c0-1.3-1-2.2-2.7-2.2h-3.2v7.4h0.8v-2.9h2.1l2.2,2.9
					H313.8z M312.7,156.5c0,1-0.8,1.5-1.9,1.5h-2.3v-3h2.3C312,155,312.7,155.6,312.7,156.5z"/>
				<path id="path1322" class="st2" d="M318.9,154.2h-0.8l-3.4,7.5h0.9l0.9-2h4l0.9,2h0.9L318.9,154.2z M320.2,159h-3.4l1.7-3.8
					L320.2,159z"/>
				<path id="path1358" class="st2" d="M330,155.7v6h0.8v-7.4H330l-2.7,4l-2.7-4h-0.8v7.4h0.8v-6l2.7,4h0L330,155.7z"/>
				<path id="path1362" class="st2" d="M339.2,155.7v6h0.8v-7.4h-0.8l-2.7,4l-2.7-4h-0.8v7.4h0.8v-6l2.7,4h0L339.2,155.7z"/>
				<path id="path1338" class="st2" d="M342.2,154.2v7.4h0.8v-7.4H342.2z"/>
				<path id="path1382" class="st2" d="M350.7,160.2l-4.7-5.9h-0.8v7.4h0.8v-6.1l4.8,6.1h0.7v-7.4h-0.8L350.7,160.2z"/>
				<path id="path1378" class="st2" d="M360,160.7v-3H357v0.8h2.3v1.8c-0.6,0.5-1.4,0.7-2.1,0.7c-1.8,0-2.9-1.3-2.9-3.1
					c0-1.7,1.2-3,2.8-3c0.8,0,1.6,0.3,2.3,0.8l0.5-0.6c-0.7-0.6-1.5-1-2.8-1c-2.2,0-3.7,1.8-3.7,3.8c0,2.1,1.4,3.8,3.8,3.8
					C358.1,161.8,359.2,161.4,360,160.7z"/>
				<path id="path1261-6" class="st2" d="M191.1,138.9c1.5,0,2.9-0.3,4.2-0.9c5.6-2.3,8.2-8.8,5.9-14.4c-1.1-2.6-3.2-4.7-5.9-5.9
					c-2.7-1.1-5.8-1.1-8.5,0c-1.3,0.5-2.5,1.3-3.5,2.3c-1,1-1.8,2.2-2.4,3.5c-0.6,1.3-0.9,2.8-0.9,4.2v0.1c0,1.5,0.3,2.9,0.9,4.3
					c0.6,1.3,1.4,2.5,2.4,3.5c1,1,2.2,1.8,3.5,2.3C188.2,138.6,189.7,138.9,191.1,138.9 M191.1,109.9c2.4,0,4.8,0.5,7,1.4
					c4.3,1.8,7.7,5.3,9.6,9.6c1.9,4.5,1.9,9.5,0,14c-1.8,4.3-5.3,7.7-9.6,9.6c-4.5,1.9-9.5,1.9-14,0c-4.3-1.8-7.7-5.3-9.6-9.6
					c-0.9-2.2-1.4-4.6-1.4-7V86.6c0-0.4,0.3-0.7,0.7-0.7h5.7c0.4,0,0.7,0.3,0.7,0.7c0,0,0,0,0,0l-0.1,25.8c0,0.4,0.3,0.7,0.7,0.7
					c0.1,0,0.3,0,0.4-0.1c1.3-0.8,2.7-1.5,4.1-2C187.1,110.3,189.1,109.9,191.1,109.9"/>
				<path id="path1263-6" class="st2" d="M229.7,138.8c1.5,0,2.9-0.3,4.2-0.9c5.6-2.3,8.2-8.8,5.9-14.4c-1.1-2.6-3.2-4.7-5.9-5.9
					c-2.7-1.1-5.8-1.1-8.5,0c-1.3,0.5-2.5,1.3-3.5,2.3c-1,1-1.8,2.2-2.4,3.5c-1.2,2.7-1.2,5.8,0,8.5c0.6,1.3,1.4,2.5,2.4,3.5
					c1,1,2.2,1.8,3.5,2.3C226.8,138.5,228.2,138.8,229.7,138.8 M229.7,109.9c2.4,0,4.8,0.5,7,1.4c4.3,1.8,7.7,5.3,9.6,9.6
					c1.9,4.5,1.9,9.5,0,14c-1.8,4.3-5.3,7.7-9.6,9.6c-4.5,1.9-9.5,1.9-14,0c-4.3-1.8-7.7-5.3-9.6-9.6c-1.9-4.5-1.9-9.5,0-14
					c1.8-4.3,5.3-7.7,9.6-9.6C224.9,110.3,227.3,109.9,229.7,109.9"/>
				<path id="path1265-3" class="st2" d="M274.9,112.3c2.1,1.4,3.9,3.4,5.1,5.6c1.3,2.3,1.9,4.9,1.9,7.5v19.8c0,0.4-0.3,0.7-0.6,0.7
					c0,0,0,0,0,0h-5.7c-0.4,0-0.7-0.3-0.7-0.7v-19.8c0-1.2-0.2-2.3-0.7-3.4c-0.4-1-1.1-2-1.9-2.8c-0.8-0.8-1.7-1.4-2.8-1.9
					c-1.1-0.5-2.2-0.7-3.3-0.7c-1.2,0-2.3,0.2-3.4,0.7c-1,0.4-2,1.1-2.8,1.9c-0.8,0.8-1.4,1.8-1.8,2.8c-0.5,1.1-0.7,2.2-0.7,3.4
					v19.8c0,0.4-0.3,0.7-0.6,0.7c0,0,0,0,0,0h-5.7c-0.4,0-0.7-0.3-0.7-0.7c0,0,0,0,0,0v-34.9c0-0.4,0.3-0.7,0.6-0.7c0,0,0,0,0,0h5.7
					c0.4,0,0.6,0.3,0.7,0.6l0,0.8c0,0.4,0.3,0.6,0.7,0.6c0.1,0,0.2,0,0.3-0.1C263.7,108.8,270,109,274.9,112.3"/>
				<path id="path1267-8" class="st2" d="M305.7,129.2C305.7,129.2,305.7,129.2,305.7,129.2c0.7,1,1.2,1.9,1.5,3
					c0.4,1.1,0.5,2.2,0.5,3.4c0,1.4-0.4,2.9-1,4.1c-0.6,1.3-1.5,2.4-2.5,3.3c-1.1,1-2.3,1.7-3.7,2.2c-1.4,0.5-2.9,0.8-4.4,0.7
					c-2.1-0.1-4.1-0.6-5.9-1.7c-1.5-0.9-2.8-2.1-3.7-3.6c-0.2-0.3-0.1-0.7,0.2-0.9l4.7-3.3c0.3-0.2,0.7-0.1,0.9,0.2c0,0,0,0,0,0.1
					c0.3,0.5,0.7,1,1.2,1.4c0.8,0.6,1.7,0.9,2.7,0.9c1.1,0.1,2.2-0.3,3.1-1c0.9-0.7,1.3-1.6,1.3-2.6c0-0.2,0-0.5-0.1-0.7v-0.1
					c0-0.1-0.1-0.2-0.1-0.2c0-0.1,0-0.2-0.1-0.2c-0.4-0.8-1-1.5-1.8-1.9c-0.2-0.1-0.4-0.2-0.6-0.3l0.1-0.1c-0.7-0.4-1.4-0.7-2.1-1.1
					c-0.8-0.3-1.6-0.7-2.3-1.1c-0.8-0.4-1.6-0.8-2.3-1.2c-0.8-0.4-1.5-0.9-2.2-1.5v-0.1l-0.2-0.2c-0.9-0.9-1.7-2-2.2-3.2
					c-0.5-1.2-0.8-2.5-0.7-3.8c0-1.3,0.4-2.6,1-3.8c0.6-1.2,1.4-2.2,2.3-3.1c1-0.9,2.2-1.6,3.4-2c1.3-0.5,2.8-0.7,4.2-0.7
					c1.8,0.1,3.6,0.6,5.3,1.4c1.3,0.7,2.5,1.7,3.3,2.9c0.2,0.3,0.1,0.7-0.1,0.9c0,0,0,0,0,0l-4.7,3.2c-0.3,0.2-0.7,0.1-0.9-0.1
					c-0.3-0.3-0.6-0.6-1-0.8c-0.6-0.4-1.3-0.6-2.1-0.5c-1-0.1-1.9,0.2-2.7,0.7c-0.7,0.5-1.1,1.2-1.1,2c0,0.2,0,0.3,0.1,0.5
					c0.1,0.5,0.3,0.9,0.7,1.3c0.4,0.4,0.8,0.7,1.3,0.9c0,0,0,0,0.1,0c0.9,0.5,1.8,1,2.9,1.5s2.2,1.1,3.3,1.7l0,0
					c0.9,0.4,1.7,0.9,2.4,1.5l0.1,0l0.3,0.3C304.7,128.1,305.2,128.6,305.7,129.2"/>
				<path id="path1269-3" class="st2" d="M328.8,139.2c1.5,0,3-0.3,4.3-0.9c2.6-1.2,4.7-3.3,5.9-5.9c0.6-1.3,0.9-2.8,0.9-4.3
					c0-1.5-0.3-3-0.9-4.3c-1.1-2.6-3.2-4.8-5.9-5.9c-2.8-1.2-5.9-1.2-8.6,0c-2.6,1.2-4.7,3.3-5.9,5.9c-0.6,1.4-0.9,2.9-0.9,4.3
					c0,1.5,0.3,2.9,0.9,4.3c1.1,2.7,3.2,4.8,5.9,5.9C325.9,138.9,327.4,139.2,328.8,139.2 M328.8,109.9c2.4,0,4.8,0.5,7,1.4
					c2.2,0.9,4.1,2.2,5.8,3.9c1.7,1.7,3,3.6,3.9,5.8c1,2.2,1.4,4.6,1.4,7.1v17c0,0.4-0.3,0.7-0.6,0.7c0,0,0,0,0,0h-5.7
					c-0.4,0-0.7-0.3-0.7-0.7v-1.4c0-0.4-0.3-0.6-0.7-0.6c-0.1,0-0.2,0-0.3,0.1c-1.3,0.8-2.7,1.5-4.1,2.1c-4.2,1.5-8.9,1.3-13-0.4
					c-4.3-1.8-7.8-5.3-9.6-9.6c-1-2.2-1.4-4.6-1.4-7c0-2.4,0.5-4.8,1.4-7.1c1.8-4.4,5.3-7.8,9.6-9.7
					C324,110.4,326.4,109.9,328.8,109.9"/>
				<path id="path1271-7" class="st2" d="M359.1,110.5v34.6c0,0.4-0.3,0.7-0.7,0.7h-5.7c-0.4,0-0.7-0.3-0.7-0.7v0v-34.6
					c0-0.4,0.3-0.7,0.7-0.7l0,0h5.7C358.8,109.9,359.1,110.2,359.1,110.5 M352,105.5v-5.7c0-0.4,0.3-0.7,0.7-0.7l0,0h5.7
					c0.4,0,0.7,0.3,0.7,0.7v5.7c0,0.4-0.3,0.7-0.7,0.7l0,0h-5.7C352.3,106.2,352,105.9,352,105.5C352,105.5,352,105.5,352,105.5"/>
			</g>
		</g>
	</g>
	<g id="brighter">
		
			<image style="overflow:visible;opacity:0.75;enable-background:new    ;" width="397" height="459" xlink:href="DC723EC1.png"  transform="matrix(0.1993 0 0 0.1993 487.8492 32.0886)">
		</image>
		<line class="st3" x1="532.1" y1="88.7" x2="512.4" y2="54.2"/>
		<path class="st4" d="M545.7,80.9c4.3,7.5,1.7,17.2-5.8,21.5c-7.5,4.3-17.2,1.7-21.5-5.8c-4.3-7.5-1.7-17.2,5.8-21.5c0,0,0,0,0,0
			C531.8,70.7,541.4,73.3,545.7,80.9z"/>
		<g transform="translate(2195.02 97.02)">
			
				<image style="overflow:visible;enable-background:new    ;" width="551" height="350" id="image" xlink:href="DC723EC7.png"  transform="matrix(0.1993 0 0 0.1993 437.4306 19.3345)">
			</image>
		</g>
		<line class="st5" x1="512.4" y1="54.2" x2="456.6" y2="54.2"/>
		<path class="st6" d="M512.4,38.5c8.7,0,15.7,7,15.8,15.7s-7,15.7-15.7,15.8c-8.7,0-15.7-7-15.8-15.7c0,0,0,0,0,0
			C496.6,45.5,503.7,38.5,512.4,38.5z"/>
		
			<image style="overflow:visible;opacity:0.75;enable-background:new    ;" width="411" height="461" xlink:href="DC723EC2.png"  transform="matrix(0.1993 0 0 0.1993 409.5309 19.3345)">
		</image>
		<line class="st7" x1="456.6" y1="54.2" x2="433.8" y2="88.7"/>
		<path class="st8" d="M443.4,45.6c4.8-7.3,14.5-9.3,21.8-4.5s9.3,14.5,4.5,21.8s-14.5,9.3-21.8,4.5c0,0,0,0,0,0
			C440.7,62.6,438.6,52.8,443.4,45.6z"/>
		
			<image style="overflow:visible;opacity:0.75;enable-background:new    ;" width="551" height="453" xlink:href="DC723EC3.png"  transform="matrix(0.1993 0 0 0.1993 398.969 53.8104)">
		</image>
		<line class="st9" x1="433.8" y1="88.7" x2="486.5" y2="119.8"/>
		<path class="st10" d="M425.8,102.2c-7.5-4.4-10-14.1-5.6-21.6c4.4-7.5,14.1-10,21.6-5.6c7.5,4.4,10,14.1,5.6,21.6c0,0,0,0,0,0
			C443,104.2,433.3,106.7,425.8,102.2z"/>
		
			<image style="overflow:visible;opacity:0.75;enable-background:new    ;" width="549" height="455" xlink:href="DC723ECE.png"  transform="matrix(0.1993 0 0 0.1993 451.5797 84.8986)">
		</image>
		<line class="st11" x1="486.5" y1="119.8" x2="538.7" y2="151.3"/>
		<path class="st12" d="M478.3,133.2c-7.4-4.5-9.9-14.2-5.4-21.6c4.5-7.4,14.2-9.9,21.6-5.4c7.4,4.5,9.9,14.2,5.4,21.6c0,0,0,0,0,0
			C495.4,135.3,485.8,137.7,478.3,133.2C478.3,133.2,478.3,133.2,478.3,133.2z"/>
		
			<image style="overflow:visible;opacity:0.75;enable-background:new    ;" width="429" height="499" xlink:href="DC723ECF.png"  transform="matrix(0.1993 0 0 0.1993 488.0486 116.3854)">
		</image>
		<line class="st13" x1="538.7" y1="151.3" x2="512.4" y2="193.5"/>
		<path class="st14" d="M525.3,142.9c4.6-7.4,14.3-9.6,21.7-5s9.6,14.3,5,21.7c-4.6,7.4-14.3,9.6-21.7,5c0,0,0,0,0,0
			C523,160,520.7,150.3,525.3,142.9z"/>
		<g transform="translate(2195.02 796.02)">
			
				<image style="overflow:visible;enable-background:new    ;" width="551" height="350" id="image_2_" xlink:href="DC723EC4.png"  transform="matrix(0.1993 0 0 0.1993 437.4306 158.6334)">
			</image>
		</g>
		<line class="st15" x1="512.4" y1="193.5" x2="456.6" y2="193.5"/>
		<path class="st16" d="M512.4,177.8c8.7,0,15.7,7,15.8,15.7s-7,15.7-15.7,15.8c-8.7,0-15.7-7-15.8-15.7c0,0,0,0,0,0
			C496.6,184.8,503.7,177.8,512.4,177.8z"/>
		
			<image style="overflow:visible;opacity:0.75;enable-background:new    ;" width="487" height="562" xlink:href="DC723EC5.png"  transform="matrix(0.1993 0 0 0.1993 394.3854 116.3854)">
		</image>
		<line class="st17" x1="456.6" y1="193.5" x2="429.3" y2="151.3"/>
		<path class="st18" d="M469.8,185c4.7,7.3,2.6,17-4.7,21.8s-17,2.6-21.8-4.7c-4.7-7.3-2.6-17,4.7-21.8c0,0,0,0,0,0
			C455.3,175.6,465.1,177.7,469.8,185C469.8,185,469.8,185,469.8,185z"/>
		<path class="st18" d="M442.5,142.7c-4.7-7.3-14.5-9.4-21.8-4.7s-9.4,14.5-4.7,21.8c4.7,7.3,14.5,9.4,21.8,4.7c0,0,0,0,0,0
			C445.1,159.8,447.2,150,442.5,142.7C442.5,142.7,442.5,142.7,442.5,142.7z"/>
	</g>
</g>
</svg>
