<?xml version="1.0" standalone="yes"?><!DOCTYPE svg PUBLIC "-//W3C//DTD SVG 1.1//EN" "http://www.w3.org/Graphics/SVG/1.1/DTD/svg11.dtd"[
<!ENTITY E3 'stroke:none;opacity:1;fill:rgb(68,154,223);'><!ENTITY E9 'matrix(1.00 0.00 0.00 1.00 404.00 84.00 ) '><!ENTITY E28 'matrix(1.00 0.00 0.00 1.00 84.00 4.00 ) '><!ENTITY E17 'matrix(1.00 0.00 0.00 1.00 404.00 244.00 ) '><!ENTITY E8 'matrix(1.00 0.00 0.00 1.00 0.00 0.00 ) '><!ENTITY E5 'stroke:none;fill-rule:evenodd;opacity:1;fill:rgb(255,255,255);'><!ENTITY E31 'stroke:rgb(169,169,169);fill:none;stroke-linecap:butt;stroke-miterlimit:9;opacity:1;stroke-width:2;stroke-linejoin:miter;'><!ENTITY E12 'M 5.5001 19.484 10.6493 19.484 16.2743 10.2485 19.3728 10.2485 M 14.6769 17.1481 16.3089 19.4828 19.2202 19.4828 M 5.500199 10.2437 10.7586 10.2437 12.1652 12.8707 '><!ENTITY E10 'M 19.156 13.888 19.156 10.3647 19.156 6.841399 25.2585 10.3647 22.2072 12.1264 z '><!ENTITY E11 'M 19.156 22.97 19.156 19.4467 19.156 15.9234 25.2585 19.4467 22.2072 21.2084 z '><!ENTITY E13 'stroke:rgb(255,255,255);fill:none;stroke-linecap:butt;stroke-miterlimit:9;opacity:1;stroke-width:2;stroke-linejoin:miter;'><!ENTITY E1 'stroke:rgb(169,169,169);fill:none;stroke-linecap:butt;stroke-miterlimit:9;opacity:1;stroke-width:1;stroke-linejoin:miter;'><!ENTITY E32 'matrix(1.00 0.00 0.00 1.00 4.00 4.00 ) '><!ENTITY E6 'stroke:none;opacity:1;fill:rgb(255,255,255);'><!ENTITY E25 'matrix(1.00 0.00 0.00 1.00 164.00 4.00 ) '><!ENTITY E19 'matrix(1.00 0.00 0.00 1.00 324.00 4.00 ) '><!ENTITY E22 'matrix(1.00 0.00 0.00 1.00 244.00 4.00 ) '><!ENTITY E4 'M 18.422 13 13.4357 18.5006 10.8556 15.9868 6.500101 20.5001 23.9571 20.48582 z '><!ENTITY E2 'matrix(1.00 0.00 0.00 1.00 404.00 4.00 ) '><!ENTITY E15 'matrix(1.00 0.00 0.00 1.00 404.00 164.00 ) '>
]><svg width="467.2169" height="292.8252" id="SvgGdi_output" xmlns="http://www.w3.org/2000/svg" xmlns:xlink="http://www.w3.org/1999/xlink"><rect id="background" height="100.00%" style="fill:rgb(255,255,255);" width="100.00%" y="0.00" x="0.00" /><g style="shape-rendering:auto;" id="root_group"><line y1="19.00" style="&E1;" id="51" x2="400.00" y2="19.00" x1="358.00" /><line y1="99.00" style="&E1;" id="52" x2="400.00" y2="99.00" x1="358.00" /><line y1="179.00" style="&E1;" id="53" x2="400.00" y2="179.00" x1="358.00" /><line y1="259.00" style="&E1;" id="54" x2="400.00" y2="259.00" x1="358.00" /><line y1="19.00" style="&E1;" id="55" x2="320.00" y2="19.00" x1="278.00" /><line y1="19.00" style="&E1;" id="56" x2="320.00" y2="99.00" x1="278.00" /><line y1="19.00" style="&E1;" id="57" x2="320.00" y2="179.00" x1="278.00" /><line y1="19.00" style="&E1;" id="58" x2="320.00" y2="259.00" x1="278.00" /><line y1="19.00" style="&E1;" id="59" x2="240.00" y2="19.00" x1="198.00" /><line y1="19.00" style="&E1;" id="60" x2="160.00" y2="19.00" x1="118.00" /><line y1="19.00" style="&E1;" id="61" x2="80.00" y2="19.00" x1="38.00" /><ellipse id="62" cy="15.00" cx="15.00" transform="&E2;" rx="15.00" ry="15.00" style="&E3;" /><path d="&E4;" style="&E5;" transform="&E2;" id="63" /><ellipse id="64" cy="10.96" cx="10.92" transform="&E2;" rx="2.75" ry="2.75" style="&E6;" /><text id="65" transform="&E8;" x="404.00px" y="39.00px" style="stroke:none;clip-path:url(#67_text_clipper);font-family:Microsoft Sans Serif;fill:rgb(0,0,0);font-size:8.25pt;opacity:1;"><tspan dy="8.25pt" id="69">CropCenter</tspan></text><ellipse id="71" cy="15.00" cx="15.00" transform="&E9;" rx="15.00" ry="15.00" style="&E3;" /><path d="&E10;" style="&E5;" transform="&E9;" id="72" /><path d="&E11;" style="&E5;" transform="&E9;" id="73" /><path d="&E12;" style="&E13;" transform="&E9;" id="74" /><text id="75" transform="&E8;" x="404.00px" y="119.00px" style="stroke:none;clip-path:url(#77_text_clipper);font-family:Microsoft Sans Serif;fill:rgb(0,0,0);font-size:8.25pt;opacity:1;"><tspan dy="8.25pt" id="79">Name</tspan></text><ellipse id="81" cy="15.00" cx="15.00" transform="&E15;" rx="15.00" ry="15.00" style="&E3;" /><path d="&E10;" style="&E5;" transform="&E15;" id="82" /><path d="&E11;" style="&E5;" transform="&E15;" id="83" /><path d="&E12;" style="&E13;" transform="&E15;" id="84" /><text id="85" transform="&E8;" x="404.00px" y="199.00px" style="stroke:none;clip-path:url(#87_text_clipper);font-family:Microsoft Sans Serif;fill:rgb(0,0,0);font-size:8.25pt;opacity:1;"><tspan dy="8.25pt" id="89">Position</tspan></text><ellipse id="91" cy="15.00" cx="15.00" transform="&E17;" rx="15.00" ry="15.00" style="&E3;" /><path d="&E10;" style="&E5;" transform="&E17;" id="92" /><path d="&E11;" style="&E5;" transform="&E17;" id="93" /><path d="&E12;" style="&E13;" transform="&E17;" id="94" /><text id="95" transform="&E8;" x="404.00px" y="279.00px" style="stroke:none;clip-path:url(#97_text_clipper);font-family:Microsoft Sans Serif;fill:rgb(0,0,0);font-size:8.25pt;opacity:1;"><tspan dy="8.25pt" id="99">Confidence</tspan></text><ellipse id="101" cy="15.00" cx="15.00" transform="&E19;" rx="15.00" ry="15.00" style="&E3;" /><path d="&E10;" style="&E5;" transform="&E19;" id="102" /><path d="&E11;" style="&E5;" transform="&E19;" id="103" /><path d="&E12;" style="&E13;" transform="&E19;" id="104" /><text id="105" transform="&E8;" x="324.00px" y="39.00px" style="stroke:none;clip-path:url(#107_text_clipper);font-family:Microsoft Sans Serif;fill:rgb(0,0,0);font-size:8.25pt;opacity:1;"><tspan dy="8.25pt" id="109">Image,</tspan></text><text id="111" transform="&E8;" x="324.00px" y="51.45px" style="stroke:none;clip-path:url(#113_text_clipper);font-family:Microsoft Sans Serif;fill:rgb(0,0,0);font-size:8.25pt;opacity:1;"><tspan dy="8.25pt" id="115">Position</tspan></text><line y1="99.00" style="&E1;" id="117" x2="358.00" y2="99.00" x1="320.00" /><line y1="179.00" style="&E1;" id="118" x2="358.00" y2="179.00" x1="320.00" /><line y1="259.00" style="&E1;" id="119" x2="358.00" y2="259.00" x1="320.00" /><ellipse id="120" cy="15.00" cx="15.00" transform="&E22;" rx="15.00" ry="15.00" style="&E3;" /><path style="&E13;" transform="&E22;" id="121" d="M 16.849 10.062 23.4027 10.062 M 16.6038 19.6084 23.3505 19.6084 M 12.3075 17.1615 7.5719 21.8971 M 7.577335 17.152 12.31704 21.8917 M 6.564136 10.0047 13.30904 10.0047 M 9.936636 6.6288 9.936636 13.3806 " /><ellipse id="122" cy="16.33" cx="19.93" transform="&E22;" rx="1.30" ry="1.30" style="&E6;" /><ellipse id="123" cy="22.83" cx="19.93" transform="&E22;" rx="1.30" ry="1.30" style="&E6;" /><text id="124" transform="&E8;" x="244.00px" y="39.00px" style="stroke:none;clip-path:url(#126_text_clipper);font-family:Microsoft Sans Serif;fill:rgb(0,0,0);font-size:8.25pt;opacity:1;"><tspan dy="8.25pt" id="128">Index</tspan></text><ellipse id="130" cy="15.00" cx="15.00" transform="&E25;" rx="15.00" ry="15.00" style="&E3;" /><path d="&E4;" style="&E5;" transform="&E25;" id="131" /><ellipse id="132" cy="10.96" cx="10.92" transform="&E25;" rx="2.75" ry="2.75" style="&E6;" /><text id="133" transform="&E8;" x="164.00px" y="39.00px" style="stroke:none;clip-path:url(#135_text_clipper);font-family:Microsoft Sans Serif;fill:rgb(0,0,0);font-size:8.25pt;opacity:1;"><tspan dy="8.25pt" id="137">Predict</tspan></text><text id="139" transform="&E8;" x="164.00px" y="51.45px" style="stroke:none;clip-path:url(#141_text_clipper);font-family:Microsoft Sans Serif;fill:rgb(0,0,0);font-size:8.25pt;opacity:1;"><tspan dy="8.25pt" id="143">Centroids</tspan></text><ellipse id="145" cy="15.00" cx="15.00" transform="&E28;" rx="15.00" ry="15.00" style="&E3;" /><path d="&E4;" style="&E5;" transform="&E28;" id="146" /><ellipse id="147" cy="10.96" cx="10.92" transform="&E28;" rx="2.75" ry="2.75" style="&E6;" /><text id="148" transform="&E8;" x="84.00px" y="39.00px" style="stroke:none;clip-path:url(#150_text_clipper);font-family:Microsoft Sans Serif;fill:rgb(0,0,0);font-size:8.25pt;opacity:1;"><tspan dy="8.25pt" id="152">Grayscale</tspan></text><path style="&E31;" transform="&E32;" id="154" d="M 31.179 5.2 C 34.9985 11.0918 34.9814 18.682 31.13552 24.557 " /><ellipse id="155" cy="15.00" cx="15.00" transform="&E32;" rx="15.00" ry="15.00" style="stroke:none;opacity:1;fill:rgb(91,178,126);" /><path style="&E5;" transform="&E32;" id="156" d="M 23.75 9.1 19.5587 11.5211 19.5587 18.3937 23.75 20.8147 z " /><path style="&E5;" transform="&E32;" id="157" d="M 8.6927 9.2 15.7194 9.2 C 17.19 9.2 18.3739 10.4337 18.3739 11.9661 L 18.3739 17.8234 C 18.3739 19.3558 17.19 20.5893 15.7194 20.5893 L 8.692701 20.5893 C 7.222101 20.5893 6.038201 19.3558 6.038201 17.8234 L 6.038201 11.9661 C 6.038201 10.4337 7.222101 9.199999 8.692701 9.199999 z " /><ellipse id="158" cy="19.00" cx="4.00" rx="3.00" ry="3.00" style="&E31;" /><ellipse id="159" cy="19.00" cx="4.00" rx="3.00" ry="3.00" style="&E6;" /><text id="160" transform="&E8;" x="4.00px" y="39.00px" style="stroke:none;clip-path:url(#162_text_clipper);font-family:Microsoft Sans Serif;fill:rgb(0,0,0);font-size:8.25pt;opacity:1;"><tspan dy="8.25pt" id="164">FileCapture</tspan></text></g><defs id="clips_hatches_and_gradients"><clipPath id="67_text_clipper"><rect x="404.00" y="39.00" width="62.22" height="13.83" id="68" /></clipPath><clipPath id="77_text_clipper"><rect x="404.00" y="119.00" width="33.88" height="13.83" id="78" /></clipPath><clipPath id="87_text_clipper"><rect x="404.00" y="199.00" width="44.11" height="13.83" id="88" /></clipPath><clipPath id="97_text_clipper"><rect x="404.00" y="279.00" width="61.05" height="13.83" id="98" /></clipPath><clipPath id="107_text_clipper"><rect x="324.00" y="39.00" width="44.11" height="27.65" id="108" /></clipPath><clipPath id="113_text_clipper"><rect x="324.00" y="51.45" width="44.11" height="27.65" id="114" /></clipPath><clipPath id="126_text_clipper"><rect x="244.00" y="39.00" width="31.38" height="13.83" id="127" /></clipPath><clipPath id="135_text_clipper"><rect x="164.00" y="39.00" width="52.22" height="27.65" id="136" /></clipPath><clipPath id="141_text_clipper"><rect x="164.00" y="51.45" width="52.22" height="27.65" id="142" /></clipPath><clipPath id="150_text_clipper"><rect x="84.00" y="39.00" width="54.74" height="13.83" id="151" /></clipPath><clipPath id="162_text_clipper"><rect x="4.00" y="39.00" width="62.36" height="13.83" id="163" /></clipPath></defs></svg>