<?xml version="1.0" standalone="yes"?><!DOCTYPE svg PUBLIC "-//W3C//DTD SVG 1.1//EN" "http://www.w3.org/Graphics/SVG/1.1/DTD/svg11.dtd"[
<!ENTITY E3 'stroke:none;opacity:1;fill:rgb(68,154,223);'><!ENTITY E11 'matrix(1.00 0.00 0.00 1.00 404.00 84.00 ) '><!ENTITY E26 'matrix(1.00 0.00 0.00 1.00 84.00 4.00 ) '><!ENTITY E10 'matrix(1.00 0.00 0.00 1.00 0.00 0.00 ) '><!ENTITY E5 'stroke:none;fill-rule:evenodd;opacity:1;fill:rgb(255,255,255);'><!ENTITY E29 'stroke:rgb(169,169,169);fill:none;stroke-linecap:butt;stroke-miterlimit:9;opacity:1;stroke-width:2;stroke-linejoin:miter;'><!ENTITY E7 'M 5.5001 19.484 10.6493 19.484 16.2743 10.2485 19.3728 10.2485 M 14.6769 17.1481 16.3089 19.4828 19.2202 19.4828 M 5.500199 10.2437 10.7586 10.2437 12.1652 12.8707 '><!ENTITY E4 'M 19.156 13.888 19.156 10.3647 19.156 6.841399 25.2585 10.3647 22.2072 12.1264 z '><!ENTITY E6 'M 19.156 22.97 19.156 19.4467 19.156 15.9234 25.2585 19.4467 22.2072 21.2084 z '><!ENTITY E8 'stroke:rgb(255,255,255);fill:none;stroke-linecap:butt;stroke-miterlimit:9;opacity:1;stroke-width:2;stroke-linejoin:miter;'><!ENTITY E1 'stroke:rgb(169,169,169);fill:none;stroke-linecap:butt;stroke-miterlimit:9;opacity:1;stroke-width:1;stroke-linejoin:miter;'><!ENTITY E17 'stroke:none;opacity:1;fill:rgb(255,255,255);'><!ENTITY E23 'matrix(1.00 0.00 0.00 1.00 164.00 4.00 ) '><!ENTITY E30 'matrix(1.00 0.00 0.00 1.00 4.00 4.00 ) '><!ENTITY E15 'matrix(1.00 0.00 0.00 1.00 324.00 4.00 ) '><!ENTITY E19 'matrix(1.00 0.00 0.00 1.00 244.00 4.00 ) '><!ENTITY E16 'M 18.422 13 13.4357 18.5006 10.8556 15.9868 6.500101 20.5001 23.9571 20.48582 z '><!ENTITY E2 'matrix(1.00 0.00 0.00 1.00 404.00 4.00 ) '><!ENTITY E13 'matrix(1.00 0.00 0.00 1.00 404.00 164.00 ) '>
]><svg width="451.5495" height="212.8252" id="SvgGdi_output" xmlns="http://www.w3.org/2000/svg" xmlns:xlink="http://www.w3.org/1999/xlink"><rect id="background" height="100.00%" style="fill:rgb(255,255,255);" width="100.00%" y="0.00" x="0.00" /><g style="shape-rendering:auto;" id="root_group"><line y1="19.00" style="&E1;" id="47" x2="400.00" y2="19.00" x1="358.00" /><line y1="99.00" style="&E1;" id="48" x2="400.00" y2="99.00" x1="358.00" /><line y1="179.00" style="&E1;" id="49" x2="400.00" y2="179.00" x1="358.00" /><line y1="19.00" style="&E1;" id="50" x2="320.00" y2="19.00" x1="278.00" /><line y1="19.00" style="&E1;" id="51" x2="320.00" y2="99.00" x1="278.00" /><line y1="19.00" style="&E1;" id="52" x2="320.00" y2="179.00" x1="278.00" /><line y1="19.00" style="&E1;" id="53" x2="240.00" y2="19.00" x1="198.00" /><line y1="19.00" style="&E1;" id="54" x2="160.00" y2="19.00" x1="118.00" /><line y1="19.00" style="&E1;" id="55" x2="80.00" y2="19.00" x1="38.00" /><ellipse id="56" cy="15.00" cx="15.00" transform="&E2;" rx="15.00" ry="15.00" style="&E3;" /><path d="&E4;" style="&E5;" transform="&E2;" id="57" /><path d="&E6;" style="&E5;" transform="&E2;" id="58" /><path d="&E7;" style="&E8;" transform="&E2;" id="59" /><text id="60" transform="&E10;" x="404.00px" y="39.00px" style="stroke:none;clip-path:url(#62_text_clipper);font-family:Microsoft Sans Serif;fill:rgb(0,0,0);font-size:8.25pt;opacity:1;"><tspan dy="8.25pt" id="64">Position</tspan></text><ellipse id="66" cy="15.00" cx="15.00" transform="&E11;" rx="15.00" ry="15.00" style="&E3;" /><path d="&E4;" style="&E5;" transform="&E11;" id="67" /><path d="&E6;" style="&E5;" transform="&E11;" id="68" /><path d="&E7;" style="&E8;" transform="&E11;" id="69" /><text id="70" transform="&E10;" x="404.00px" y="119.00px" style="stroke:none;clip-path:url(#72_text_clipper);font-family:Microsoft Sans Serif;fill:rgb(0,0,0);font-size:8.25pt;opacity:1;"><tspan dy="8.25pt" id="74">Label</tspan></text><ellipse id="76" cy="15.00" cx="15.00" transform="&E13;" rx="15.00" ry="15.00" style="&E3;" /><path d="&E4;" style="&E5;" transform="&E13;" id="77" /><path d="&E6;" style="&E5;" transform="&E13;" id="78" /><path d="&E7;" style="&E8;" transform="&E13;" id="79" /><text id="80" transform="&E10;" x="404.00px" y="199.00px" style="stroke:none;clip-path:url(#82_text_clipper);font-family:Microsoft Sans Serif;fill:rgb(0,0,0);font-size:8.25pt;opacity:1;"><tspan dy="8.25pt" id="84">Centroid</tspan></text><ellipse id="86" cy="15.00" cx="15.00" transform="&E15;" rx="15.00" ry="15.00" style="&E3;" /><path d="&E16;" style="&E5;" transform="&E15;" id="87" /><ellipse id="88" cy="10.96" cx="10.92" transform="&E15;" rx="2.75" ry="2.75" style="&E17;" /><text id="89" transform="&E10;" x="324.00px" y="39.00px" style="stroke:none;clip-path:url(#91_text_clipper);font-family:Microsoft Sans Serif;fill:rgb(0,0,0);font-size:8.25pt;opacity:1;"><tspan dy="8.25pt" id="93">GetBodyPart</tspan></text><line y1="99.00" style="&E1;" id="95" x2="358.00" y2="99.00" x1="320.00" /><line y1="179.00" style="&E1;" id="96" x2="358.00" y2="179.00" x1="320.00" /><ellipse id="97" cy="15.00" cx="15.00" transform="&E19;" rx="15.00" ry="15.00" style="&E3;" /><path d="&E16;" style="&E5;" transform="&E19;" id="98" /><ellipse id="99" cy="10.96" cx="10.92" transform="&E19;" rx="2.75" ry="2.75" style="&E17;" /><text id="100" transform="&E10;" x="244.00px" y="39.00px" style="stroke:none;clip-path:url(#102_text_clipper);font-family:Microsoft Sans Serif;fill:rgb(0,0,0);font-size:8.25pt;opacity:1;"><tspan dy="8.25pt" id="104">GetMaximum</tspan></text><text id="106" transform="&E10;" x="244.00px" y="51.45px" style="stroke:none;clip-path:url(#108_text_clipper);font-family:Microsoft Sans Serif;fill:rgb(0,0,0);font-size:8.25pt;opacity:1;"><tspan dy="8.25pt" id="110">Confidence</tspan></text><text id="112" transform="&E10;" x="244.00px" y="63.90px" style="stroke:none;clip-path:url(#114_text_clipper);font-family:Microsoft Sans Serif;fill:rgb(0,0,0);font-size:8.25pt;opacity:1;"><tspan dy="8.25pt" id="116">Label</tspan></text><ellipse id="118" cy="15.00" cx="15.00" transform="&E23;" rx="15.00" ry="15.00" style="&E3;" /><path d="&E16;" style="&E5;" transform="&E23;" id="119" /><ellipse id="120" cy="10.96" cx="10.92" transform="&E23;" rx="2.75" ry="2.75" style="&E17;" /><text id="121" transform="&E10;" x="164.00px" y="39.00px" style="stroke:none;clip-path:url(#123_text_clipper);font-family:Microsoft Sans Serif;fill:rgb(0,0,0);font-size:8.25pt;opacity:1;"><tspan dy="8.25pt" id="125">Predict</tspan></text><text id="127" transform="&E10;" x="164.00px" y="51.45px" style="stroke:none;clip-path:url(#129_text_clipper);font-family:Microsoft Sans Serif;fill:rgb(0,0,0);font-size:8.25pt;opacity:1;"><tspan dy="8.25pt" id="131">LabeledPoses</tspan></text><ellipse id="133" cy="15.00" cx="15.00" transform="&E26;" rx="15.00" ry="15.00" style="&E3;" /><path d="&E16;" style="&E5;" transform="&E26;" id="134" /><ellipse id="135" cy="10.96" cx="10.92" transform="&E26;" rx="2.75" ry="2.75" style="&E17;" /><text id="136" transform="&E10;" x="84.00px" y="39.00px" style="stroke:none;clip-path:url(#138_text_clipper);font-family:Microsoft Sans Serif;fill:rgb(0,0,0);font-size:8.25pt;opacity:1;"><tspan dy="8.25pt" id="140">Grayscale</tspan></text><path style="&E29;" transform="&E30;" id="142" d="M 31.179 5.2 C 34.9985 11.0918 34.9814 18.682 31.13552 24.557 " /><ellipse id="143" cy="15.00" cx="15.00" transform="&E30;" rx="15.00" ry="15.00" style="stroke:none;opacity:1;fill:rgb(91,178,126);" /><path style="&E5;" transform="&E30;" id="144" d="M 23.75 9.1 19.5587 11.5211 19.5587 18.3937 23.75 20.8147 z " /><path style="&E5;" transform="&E30;" id="145" d="M 8.6927 9.2 15.7194 9.2 C 17.19 9.2 18.3739 10.4337 18.3739 11.9661 L 18.3739 17.8234 C 18.3739 19.3558 17.19 20.5893 15.7194 20.5893 L 8.692701 20.5893 C 7.222101 20.5893 6.038201 19.3558 6.038201 17.8234 L 6.038201 11.9661 C 6.038201 10.4337 7.222101 9.199999 8.692701 9.199999 z " /><ellipse id="146" cy="19.00" cx="4.00" rx="3.00" ry="3.00" style="&E29;" /><ellipse id="147" cy="19.00" cx="4.00" rx="3.00" ry="3.00" style="&E17;" /><text id="148" transform="&E10;" x="4.00px" y="39.00px" style="stroke:none;clip-path:url(#150_text_clipper);font-family:Microsoft Sans Serif;fill:rgb(0,0,0);font-size:8.25pt;opacity:1;"><tspan dy="8.25pt" id="152">FileCapture</tspan></text></g><defs id="clips_hatches_and_gradients"><clipPath id="62_text_clipper"><rect x="404.00" y="39.00" width="44.11" height="13.83" id="63" /></clipPath><clipPath id="72_text_clipper"><rect x="404.00" y="119.00" width="31.45" height="13.83" id="73" /></clipPath><clipPath id="82_text_clipper"><rect x="404.00" y="199.00" width="46.55" height="13.83" id="83" /></clipPath><clipPath id="91_text_clipper"><rect x="324.00" y="39.00" width="68.53" height="13.83" id="92" /></clipPath><clipPath id="102_text_clipper"><rect x="244.00" y="39.00" width="71.09" height="41.48" id="103" /></clipPath><clipPath id="108_text_clipper"><rect x="244.00" y="51.45" width="71.09" height="41.48" id="109" /></clipPath><clipPath id="114_text_clipper"><rect x="244.00" y="63.90" width="71.09" height="41.48" id="115" /></clipPath><clipPath id="123_text_clipper"><rect x="164.00" y="39.00" width="75.54" height="27.65" id="124" /></clipPath><clipPath id="129_text_clipper"><rect x="164.00" y="51.45" width="75.54" height="27.65" id="130" /></clipPath><clipPath id="138_text_clipper"><rect x="84.00" y="39.00" width="54.74" height="13.83" id="139" /></clipPath><clipPath id="150_text_clipper"><rect x="4.00" y="39.00" width="62.36" height="13.83" id="151" /></clipPath></defs></svg>