<?xml version="1.0" standalone="yes"?><!DOCTYPE svg PUBLIC "-//W3C//DTD SVG 1.1//EN" "http://www.w3.org/Graphics/SVG/1.1/DTD/svg11.dtd"[
<!ENTITY E3 'stroke:none;opacity:1;fill:rgb(68,154,223);'><!ENTITY E11 'matrix(1.25 0.00 0.00 1.25 405.00 105.00 ) '><!ENTITY E29 'matrix(1.25 0.00 0.00 1.25 205.00 5.00 ) '><!ENTITY E10 'matrix(1.00 0.00 0.00 1.00 0.00 0.00 ) '><!ENTITY E15 'matrix(1.25 0.00 0.00 1.25 405.00 305.00 ) '><!ENTITY E5 'stroke:none;fill-rule:evenodd;opacity:1;fill:rgb(255,255,255);'><!ENTITY E32 'matrix(1.25 0.00 0.00 1.25 105.00 5.00 ) '><!ENTITY E37 'matrix(1.25 0.00 0.00 1.25 5.00 5.00 ) '><!ENTITY E19 'matrix(1.25 0.00 0.00 1.25 405.00 505.00 ) '><!ENTITY E7 'M 5.5001 19.484 10.6493 19.484 16.2743 10.2485 19.3728 10.2485 M 14.6769 17.1481 16.3089 19.4828 19.2202 19.4828 M 5.500199 10.2437 10.7586 10.2437 12.1652 12.8707 '><!ENTITY E4 'M 19.156 13.888 19.156 10.3647 19.156 6.841399 25.2585 10.3647 22.2072 12.1264 z '><!ENTITY E17 'matrix(1.25 0.00 0.00 1.25 405.00 405.00 ) '><!ENTITY E6 'M 19.156 22.97 19.156 19.4467 19.156 15.9234 25.2585 19.4467 22.2072 21.2084 z '><!ENTITY E8 'stroke:rgb(255,255,255);fill:none;stroke-linecap:butt;stroke-miterlimit:9;opacity:1;stroke-width:2;stroke-linejoin:miter;'><!ENTITY E21 'matrix(1.25 0.00 0.00 1.25 405.00 605.00 ) '><!ENTITY E25 'stroke:none;opacity:1;fill:rgb(255,255,255);'><!ENTITY E24 'M 18.422 13 13.4357 18.5006 10.8556 15.9868 6.500101 20.5001 23.9571 20.48582 z '><!ENTITY E2 'matrix(1.25 0.00 0.00 1.25 405.00 5.00 ) '><!ENTITY E23 'matrix(1.25 0.00 0.00 1.25 305.00 5.00 ) '><!ENTITY E1 'stroke:rgb(169,169,169);fill:none;stroke-linecap:butt;stroke-miterlimit:9;opacity:1;stroke-width:1.25;stroke-linejoin:miter;'><!ENTITY E13 'matrix(1.25 0.00 0.00 1.25 405.00 205.00 ) '><!ENTITY E27 'matrix(1.25 0.00 0.00 1.25 305.00 405.00 ) '>
]><svg width="478.3953" height="665.0889" id="SvgGdi_output" xmlns="http://www.w3.org/2000/svg"><rect id="background" height="100.00%" style="fill:rgb(255,255,255);" width="100.00%" y="0.00" x="0.00" /><g style="shape-rendering:auto;" id="root_group"><line y1="23.75" style="&E1;" id="85" x2="400.00" y2="23.75" x1="347.50" /><line y1="23.75" style="&E1;" id="86" x2="400.00" y2="123.75" x1="347.50" /><line y1="23.75" style="&E1;" id="87" x2="400.00" y2="223.75" x1="347.50" /><line y1="323.75" style="&E1;" id="88" x2="400.00" y2="323.75" x1="347.50" /><line y1="423.75" style="&E1;" id="89" x2="400.00" y2="423.75" x1="347.50" /><line y1="423.75" style="&E1;" id="90" x2="400.00" y2="523.75" x1="347.50" /><line y1="623.75" style="&E1;" id="91" x2="400.00" y2="623.75" x1="347.50" /><line y1="23.75" style="&E1;" id="92" x2="300.00" y2="23.75" x1="247.50" /><line y1="23.75" style="&E1;" id="93" x2="300.00" y2="323.75" x1="247.50" /><line y1="23.75" style="&E1;" id="94" x2="300.00" y2="423.75" x1="247.50" /><line y1="623.75" style="&E1;" id="95" x2="300.00" y2="623.75" x1="247.50" /><line y1="23.75" style="&E1;" id="96" x2="200.00" y2="23.75" x1="147.50" /><line y1="23.75" style="&E1;" id="97" x2="200.00" y2="623.75" x1="147.50" /><line y1="23.75" style="&E1;" id="98" x2="100.00" y2="23.75" x1="47.50" /><ellipse id="99" cy="15.00" cx="15.00" transform="&E2;" rx="15.00" ry="15.00" style="&E3;" /><path d="&E4;" style="&E5;" transform="&E2;" id="100" /><path d="&E6;" style="&E5;" transform="&E2;" id="101" /><path d="&E7;" style="&E8;" transform="&E2;" id="102" /><text id="103" transform="&E10;" x="405.00" y="48.75" style="stroke:none;clip-path:url(#105_text_clipper);font-family:Microsoft Sans Serif;fill:rgb(0,0,0);font-size:9.75pt;opacity:1;"><tspan dy="9.75pt" id="107">Position</tspan></text><ellipse id="109" cy="15.00" cx="15.00" transform="&E11;" rx="15.00" ry="15.00" style="&E3;" /><path d="&E4;" style="&E5;" transform="&E11;" id="110" /><path d="&E6;" style="&E5;" transform="&E11;" id="111" /><path d="&E7;" style="&E8;" transform="&E11;" id="112" /><text id="113" transform="&E10;" x="405.00" y="148.75" style="stroke:none;clip-path:url(#115_text_clipper);font-family:Microsoft Sans Serif;fill:rgb(0,0,0);font-size:9.75pt;opacity:1;"><tspan dy="9.75pt" id="117">Confidence</tspan></text><ellipse id="119" cy="15.00" cx="15.00" transform="&E13;" rx="15.00" ry="15.00" style="&E3;" /><path d="&E4;" style="&E5;" transform="&E13;" id="120" /><path d="&E6;" style="&E5;" transform="&E13;" id="121" /><path d="&E7;" style="&E8;" transform="&E13;" id="122" /><text id="123" transform="&E10;" x="405.00" y="248.75" style="stroke:none;clip-path:url(#125_text_clipper);font-family:Microsoft Sans Serif;fill:rgb(0,0,0);font-size:9.75pt;opacity:1;"><tspan dy="9.75pt" id="127">Name</tspan></text><ellipse id="129" cy="15.00" cx="15.00" transform="&E15;" rx="15.00" ry="15.00" style="&E3;" /><path d="&E4;" style="&E5;" transform="&E15;" id="130" /><path d="&E6;" style="&E5;" transform="&E15;" id="131" /><path d="&E7;" style="&E8;" transform="&E15;" id="132" /><text id="133" transform="&E10;" x="405.00" y="348.75" style="stroke:none;clip-path:url(#135_text_clipper);font-family:Microsoft Sans Serif;fill:rgb(0,0,0);font-size:9.75pt;opacity:1;"><tspan dy="9.75pt" id="137">Label</tspan></text><ellipse id="139" cy="15.00" cx="15.00" transform="&E17;" rx="15.00" ry="15.00" style="&E3;" /><path d="&E4;" style="&E5;" transform="&E17;" id="140" /><path d="&E6;" style="&E5;" transform="&E17;" id="141" /><path d="&E7;" style="&E8;" transform="&E17;" id="142" /><text id="143" transform="&E10;" x="405.00" y="448.75" style="stroke:none;clip-path:url(#145_text_clipper);font-family:Microsoft Sans Serif;fill:rgb(0,0,0);font-size:9.75pt;opacity:1;"><tspan dy="9.75pt" id="147">Position</tspan></text><ellipse id="149" cy="15.00" cx="15.00" transform="&E19;" rx="15.00" ry="15.00" style="&E3;" /><path d="&E4;" style="&E5;" transform="&E19;" id="150" /><path d="&E6;" style="&E5;" transform="&E19;" id="151" /><path d="&E7;" style="&E8;" transform="&E19;" id="152" /><text id="153" transform="&E10;" x="405.00" y="548.75" style="stroke:none;clip-path:url(#155_text_clipper);font-family:Microsoft Sans Serif;fill:rgb(0,0,0);font-size:9.75pt;opacity:1;"><tspan dy="9.75pt" id="157">Confidence</tspan></text><ellipse id="159" cy="15.00" cx="15.00" transform="&E21;" rx="15.00" ry="15.00" style="&E3;" /><path d="&E4;" style="&E5;" transform="&E21;" id="160" /><path d="&E6;" style="&E5;" transform="&E21;" id="161" /><path d="&E7;" style="&E8;" transform="&E21;" id="162" /><text id="163" transform="&E10;" x="405.00" y="648.75" style="stroke:none;clip-path:url(#165_text_clipper);font-family:Microsoft Sans Serif;fill:rgb(0,0,0);font-size:9.75pt;opacity:1;"><tspan dy="9.75pt" id="167">Count</tspan></text><ellipse id="169" cy="15.00" cx="15.00" transform="&E23;" rx="15.00" ry="15.00" style="&E3;" /><path d="&E24;" style="&E5;" transform="&E23;" id="170" /><ellipse id="171" cy="10.96" cx="10.92" transform="&E23;" rx="2.75" ry="2.75" style="&E25;" /><text id="172" transform="&E10;" x="305.00" y="48.75" style="stroke:none;clip-path:url(#174_text_clipper);font-family:Microsoft Sans Serif;fill:rgb(0,0,0);font-size:9.75pt;opacity:1;"><tspan dy="9.75pt" id="176">GetBodyPart</tspan></text><line y1="323.75" style="&E1;" id="178" x2="347.50" y2="323.75" x1="300.00" /><ellipse id="179" cy="15.00" cx="15.00" transform="&E27;" rx="15.00" ry="15.00" style="&E3;" /><path d="&E4;" style="&E5;" transform="&E27;" id="180" /><path d="&E6;" style="&E5;" transform="&E27;" id="181" /><path d="&E7;" style="&E8;" transform="&E27;" id="182" /><text id="183" transform="&E10;" x="305.00" y="448.75" style="stroke:none;clip-path:url(#185_text_clipper);font-family:Microsoft Sans Serif;fill:rgb(0,0,0);font-size:9.75pt;opacity:1;"><tspan dy="9.75pt" id="187">Centroid</tspan></text><line y1="623.75" style="&E1;" id="189" x2="347.50" y2="623.75" x1="300.00" /><ellipse id="190" cy="15.00" cx="15.00" transform="&E29;" rx="15.00" ry="15.00" style="&E3;" /><path style="&E8;" transform="&E29;" id="191" d="M 16.849 10.062 23.4027 10.062 M 16.6038 19.6084 23.3505 19.6084 M 12.3075 17.1615 7.5719 21.8971 M 7.577335 17.152 12.31704 21.8917 M 6.564136 10.0047 13.30904 10.0047 M 9.936636 6.6288 9.936636 13.3806 " /><ellipse id="192" cy="16.33" cx="19.93" transform="&E29;" rx="1.30" ry="1.30" style="&E25;" /><ellipse id="193" cy="22.83" cx="19.93" transform="&E29;" rx="1.30" ry="1.30" style="&E25;" /><text id="194" transform="&E10;" x="205.00" y="48.75" style="stroke:none;clip-path:url(#196_text_clipper);font-family:Microsoft Sans Serif;fill:rgb(0,0,0);font-size:9.75pt;opacity:1;"><tspan dy="9.75pt" id="198">Index</tspan></text><line y1="623.75" style="&E1;" id="200" x2="247.50" y2="623.75" x1="200.00" /><ellipse id="201" cy="15.00" cx="15.00" transform="&E32;" rx="15.00" ry="15.00" style="&E3;" /><path d="&E24;" style="&E5;" transform="&E32;" id="202" /><ellipse id="203" cy="10.96" cx="10.92" transform="&E32;" rx="2.75" ry="2.75" style="&E25;" /><text id="204" transform="&E10;" x="105.00" y="48.75" style="stroke:none;clip-path:url(#206_text_clipper);font-family:Microsoft Sans Serif;fill:rgb(0,0,0);font-size:9.75pt;opacity:1;"><tspan dy="9.75pt" id="208">PredictLabeled</tspan></text><text id="210" transform="&E10;" x="105.00" y="63.46" style="stroke:none;clip-path:url(#212_text_clipper);font-family:Microsoft Sans Serif;fill:rgb(0,0,0);font-size:9.75pt;opacity:1;"><tspan dy="9.75pt" id="214">Poses</tspan></text><path transform="&E37;" id="216" style="stroke:rgb(169,169,169);fill:none;stroke-linecap:butt;stroke-miterlimit:9;opacity:1;stroke-width:2;stroke-linejoin:miter;" d="M 31.179 5.2 C 34.9985 11.0918 34.9814 18.682 31.13552 24.557 " /><ellipse id="217" cy="15.00" cx="15.00" transform="&E37;" rx="15.00" ry="15.00" style="stroke:none;opacity:1;fill:rgb(91,178,126);" /><path style="&E5;" transform="&E37;" id="218" d="M 23.75 9.1 19.5587 11.5211 19.5587 18.3937 23.75 20.8147 z " /><path style="&E5;" transform="&E37;" id="219" d="M 8.6927 9.2 15.7194 9.2 C 17.19 9.2 18.3739 10.4337 18.3739 11.9661 L 18.3739 17.8234 C 18.3739 19.3558 17.19 20.5893 15.7194 20.5893 L 8.692701 20.5893 C 7.222101 20.5893 6.038201 19.3558 6.038201 17.8234 L 6.038201 11.9661 C 6.038201 10.4337 7.222101 9.199999 8.692701 9.199999 z " /><ellipse id="220" cy="23.75" cx="5.00" rx="3.75" ry="3.75" style="stroke:rgb(169,169,169);fill:none;stroke-linecap:butt;stroke-miterlimit:9;opacity:1;stroke-width:2.5;stroke-linejoin:miter;" /><ellipse id="221" cy="23.75" cx="5.00" rx="3.75" ry="3.75" style="&E25;" /><text id="222" transform="&E10;" x="5.00" y="48.75" style="stroke:none;clip-path:url(#224_text_clipper);font-family:Microsoft Sans Serif;fill:rgb(0,0,0);font-size:9.75pt;opacity:1;"><tspan dy="9.75pt" id="226">FileCapture</tspan></text></g><defs id="clips_hatches_and_gradients"><clipPath id="105_text_clipper"><rect x="405.00" y="48.75" width="52.12" height="16.34" id="106" /></clipPath><clipPath id="115_text_clipper"><rect x="405.00" y="148.75" width="72.15" height="16.34" id="116" /></clipPath><clipPath id="125_text_clipper"><rect x="405.00" y="248.75" width="40.05" height="16.34" id="126" /></clipPath><clipPath id="135_text_clipper"><rect x="405.00" y="348.75" width="37.17" height="16.34" id="136" /></clipPath><clipPath id="145_text_clipper"><rect x="405.00" y="448.75" width="52.12" height="16.34" id="146" /></clipPath><clipPath id="155_text_clipper"><rect x="405.00" y="548.75" width="72.15" height="16.34" id="156" /></clipPath><clipPath id="165_text_clipper"><rect x="405.00" y="648.75" width="40.06" height="16.34" id="166" /></clipPath><clipPath id="174_text_clipper"><rect x="305.00" y="48.75" width="80.99" height="16.34" id="175" /></clipPath><clipPath id="185_text_clipper"><rect x="305.00" y="448.75" width="55.01" height="16.34" id="186" /></clipPath><clipPath id="196_text_clipper"><rect x="205.00" y="48.75" width="37.09" height="16.34" id="197" /></clipPath><clipPath id="206_text_clipper"><rect x="105.00" y="48.75" width="93.81" height="32.68" id="207" /></clipPath><clipPath id="212_text_clipper"><rect x="105.00" y="63.46" width="93.81" height="32.68" id="213" /></clipPath><clipPath id="224_text_clipper"><rect x="5.00" y="48.75" width="73.69" height="16.34" id="225" /></clipPath></defs></svg>