<?xml version="1.0" standalone="yes"?><!DOCTYPE svg PUBLIC "-//W3C//DTD SVG 1.1//EN" "http://www.w3.org/Graphics/SVG/1.1/DTD/svg11.dtd"[
<!ENTITY E6 'stroke:none;opacity:1;fill:rgb(255,255,255);'><!ENTITY E8 'matrix(1.00 0.00 0.00 1.00 0.00 0.00 ) '><!ENTITY E2 'matrix(1.25 0.00 0.00 1.25 105.00 5.00 ) '><!ENTITY E5 'stroke:none;fill-rule:evenodd;opacity:1;fill:rgb(255,255,255);'><!ENTITY E12 'matrix(1.25 0.00 0.00 1.25 5.00 5.00 ) '>
]><svg width="200.0599" height="81.42773" id="SvgGdi_output" xmlns="http://www.w3.org/2000/svg"><rect id="background" height="100.00%" style="fill:rgb(255,255,255);" width="100.00%" y="0.00" x="0.00" /><g style="shape-rendering:auto;" id="root_group"><line y1="23.75" id="53" x2="100.00" y2="23.75" x1="47.50" style="stroke:rgb(169,169,169);fill:none;stroke-linecap:butt;stroke-miterlimit:9;opacity:1;stroke-width:1.25;stroke-linejoin:miter;" /><ellipse id="54" cy="15.00" cx="15.00" transform="&E2;" rx="15.00" ry="15.00" style="stroke:none;opacity:1;fill:rgb(68,154,223);" /><path style="&E5;" transform="&E2;" id="55" d="M 18.422 13 13.4357 18.5006 10.8556 15.9868 6.500101 20.5001 23.9571 20.48582 z " /><ellipse id="56" cy="10.96" cx="10.92" transform="&E2;" rx="2.75" ry="2.75" style="&E6;" /><text id="57" transform="&E8;" x="105.00" y="48.75" style="stroke:none;clip-path:url(#59_text_clipper);font-family:Microsoft Sans Serif;fill:rgb(0,0,0);font-size:9.75pt;opacity:1;"><tspan dy="9.75pt" id="61">PredictLabeled</tspan></text><text id="63" transform="&E8;" x="105.00" y="63.46" style="stroke:none;clip-path:url(#65_text_clipper);font-family:Microsoft Sans Serif;fill:rgb(0,0,0);font-size:9.75pt;opacity:1;"><tspan dy="9.75pt" id="67">Poses</tspan></text><path transform="&E12;" id="69" style="stroke:rgb(169,169,169);fill:none;stroke-linecap:butt;stroke-miterlimit:9;opacity:1;stroke-width:2;stroke-linejoin:miter;" d="M 31.179 5.2 C 34.9985 11.0918 34.9814 18.682 31.13552 24.557 " /><ellipse id="70" cy="15.00" cx="15.00" transform="&E12;" rx="15.00" ry="15.00" style="stroke:none;opacity:1;fill:rgb(91,178,126);" /><path style="&E5;" transform="&E12;" id="71" d="M 23.75 9.1 19.5587 11.5211 19.5587 18.3937 23.75 20.8147 z " /><path style="&E5;" transform="&E12;" id="72" d="M 8.6927 9.2 15.7194 9.2 C 17.19 9.2 18.3739 10.4337 18.3739 11.9661 L 18.3739 17.8234 C 18.3739 19.3558 17.19 20.5893 15.7194 20.5893 L 8.692701 20.5893 C 7.222101 20.5893 6.038201 19.3558 6.038201 17.8234 L 6.038201 11.9661 C 6.038201 10.4337 7.222101 9.199999 8.692701 9.199999 z " /><ellipse id="73" cy="23.75" cx="5.00" rx="3.75" ry="3.75" style="stroke:rgb(169,169,169);fill:none;stroke-linecap:butt;stroke-miterlimit:9;opacity:1;stroke-width:2.5;stroke-linejoin:miter;" /><ellipse id="74" cy="23.75" cx="5.00" rx="3.75" ry="3.75" style="&E6;" /><text id="75" transform="&E8;" x="5.00" y="48.75" style="stroke:none;clip-path:url(#77_text_clipper);font-family:Microsoft Sans Serif;fill:rgb(0,0,0);font-size:9.75pt;opacity:1;"><tspan dy="9.75pt" id="79">FileCapture</tspan></text></g><defs id="clips_hatches_and_gradients"><clipPath id="59_text_clipper"><rect x="105.00" y="48.75" width="93.81" height="32.68" id="60" /></clipPath><clipPath id="65_text_clipper"><rect x="105.00" y="63.46" width="93.81" height="32.68" id="66" /></clipPath><clipPath id="77_text_clipper"><rect x="5.00" y="48.75" width="73.69" height="16.34" id="78" /></clipPath></defs></svg>