<svg id="Layer_1" data-name="Layer 1" xmlns="http://www.w3.org/2000/svg" viewBox="0 0 630.32 276.78">
<defs>
<style>
.cls-1{fill:#fff;}.cls-2{fill:#6c6c6c;}.cls-3{fill:#5ab27e;}.cls-4{font-size:13px;fill:#fafafa;font-family:Roboto-Regular, Roboto;}.cls-5{fill:none;stroke:#1d1d1b;stroke-miterlimit:10;}.cls-6{font-size:12px;}.cls-18,.cls-19,.cls-22,.cls-6{fill:#1d1d1b;}.cls-15,.cls-6{font-family:TitilliumWeb-Regular, Titillium Web;}.cls-7{letter-spacing:-0.01em;}.cls-8{letter-spacing:-0.01em;}.cls-9{letter-spacing:0em;}.cls-10{letter-spacing:-0.07em;}.cls-11{letter-spacing:-0.01em;}.cls-12{fill:#4898d3;}.cls-13{letter-spacing:-0.01em;}.cls-14{letter-spacing:-0.01em;}.cls-15{font-size:10px;fill:#2a4b9b;}.cls-16{letter-spacing:-0.01em;}.cls-17{letter-spacing:0em;}.cls-18,.cls-32{letter-spacing:0em;}.cls-19,.cls-31,.cls-32,.cls-33,.cls-34,.cls-35{font-family:TitilliumWeb-Italic, Titillium Web;font-style:italic;}.cls-20{letter-spacing:3.38em;}.cls-21{fill:#66b32e;}.cls-23{letter-spacing:-0.01em;}.cls-24{letter-spacing:-0.01em;}.cls-25{letter-spacing:-0.01em;}.cls-26{letter-spacing:-0.01em;}.cls-27{letter-spacing:0em;}.cls-28{letter-spacing:0em;}.cls-29,.cls-35{letter-spacing:-0.01em;}.cls-30{fill:#3054a2;}.cls-31{letter-spacing:-0.01em;}.cls-33{letter-spacing:0em;}.cls-36{letter-spacing:0em;}
</style>
</defs>
<rect width="100%" height="100%" fill="white"/>
<rect class="cls-1" x="300.43" y="17.82" width="131.46" height="40.15" rx="8.28"/>
<path class="cls-2" d="M423.61,18.12a8,8,0,0,1,8,8V49.69a8,8,0,0,1-8,8H308.71a8,8,0,0,1-8-8V26.1a8,8,0,0,1,8-8h114.9m0-.6H308.71a8.58,8.58,0,0,0-8.58,8.58V49.69a8.58,8.58,0,0,0,8.58,8.58h114.9a8.58,8.58,0,0,0,8.58-8.58V26.1a8.58,8.58,0,0,0-8.58-8.58Z"/>
<path class="cls-3" d="M423.19,0H309.12a9,9,0,0,0-9,9V24.52H432.19V9A9,9,0,0,0,423.19,0Z"/>
<text class="cls-4" transform="translate(341.07 15.94)">IplImage</text>
<polyline class="cls-5" points="366.16 91.29 366.16 114.78 264.8 114.78 264.8 124.03"/>
<polyline class="cls-5" points="366.16 114.78 564.28 114.78 564.28 155.63"/>
<text class="cls-6" transform="translate(317.56 86.71)">Multiple instances?</text>
<text class="cls-6" transform="translate(256.17 109.98)">
<tspan class="cls-10">Y</tspan>
<tspan x="5.62" y="0">es</tspan>
</text>
<text class="cls-6" transform="translate(475 109.98)"><tspan class="cls-11">N</tspan><tspan x="8.05" y="0">o</tspan></text><rect class="cls-1" x="498.73" y="172.63" width="131.1" height="102.67" rx="13.2"/><path class="cls-2" d="M616.64,173.1a12.74,12.74,0,0,1,12.72,12.73V262.1a12.74,12.74,0,0,1-12.72,12.72H511.93a12.74,12.74,0,0,1-12.72-12.72V185.83a12.74,12.74,0,0,1,12.72-12.73H616.64m0-.95H511.93a13.68,13.68,0,0,0-13.68,13.68V262.1a13.69,13.69,0,0,0,13.68,13.68H616.64a13.69,13.69,0,0,0,13.68-13.68V185.83a13.68,13.68,0,0,0-13.68-13.68Z"/><path class="cls-12" d="M621.32,161.63H507.25a9,9,0,0,0-9,9v15.53H630.32V170.62A9,9,0,0,0,621.32,161.63Z"/><text class="cls-4" transform="translate(515.58 177.57)">PredictSinglePose</text><text class="cls-15" transform="translate(508.25 200.21)"><tspan class="cls-16">R</tspan><tspan class="cls-17" x="6.07" y="0">e</tspan><tspan x="11.09" y="0">turns </tspan><tspan class="cls-18" x="35.59" y="0">single:</tspan><tspan class="cls-19"><tspan class="cls-20" x="0" y="12">	</tspan><tspan x="36" y="12">Pose</tspan></tspan><tspan class="cls-21"><tspan x="0" y="48">Implements:</tspan></tspan><tspan class="cls-19"><tspan class="cls-20" x="0" y="60">	</tspan><tspan x="36" y="60">single_instan</tspan><tspan class="cls-23" x="89.04" y="60">c</tspan><tspan x="93.01" y="60">e</tspan></tspan></text><path class="cls-1" d="M13.68,276.3A13.22,13.22,0,0,1,.48,263.09V186.83a13.21,13.21,0,0,1,13.2-13.2h104.7c7.53,0,13.2,6.1,13.2,14.2v76.26c0,6.5-6.17,12.21-13.2,12.21Z"/><path class="cls-2" d="M118.38,174.1c7.25,0,12.72,5.9,12.72,13.73V264.1c0,6.24-5.94,11.72-12.72,11.72H13.68A12.74,12.74,0,0,1,1,263.1V186.83A12.74,12.74,0,0,1,13.68,174.1h104.7m0-.95H13.68A13.68,13.68,0,0,0,0,186.83V263.1a13.69,13.69,0,0,0,13.68,13.68h104.7c7.56,0,13.68-6.13,13.68-12.68V187.83c0-8.56-6.12-14.68-13.68-14.68Z"/><path class="cls-12" d="M123.07,161.63H9a9,9,0,0,0-9,9v15.53H132.06V170.62A9,9,0,0,0,123.07,161.63Z"/><text class="cls-4" transform="translate(20.76 177.57)">PredictCentroids</text><polyline class="cls-5" points="66.03 159.52 66.03 124.03 361.97 124.03 361.97 159.52"/><line class="cls-5" x1="214.75" y1="124.48" x2="214.75" y2="159.97"/><rect class="cls-1" x="149.2" y="173.63" width="131.1" height="102.67" rx="13.2"/><path class="cls-2" d="M267.1,174.1a12.74,12.74,0,0,1,12.73,12.73V263.1a12.74,12.74,0,0,1-12.73,12.72H162.4a12.74,12.74,0,0,1-12.72-12.72V186.83A12.74,12.74,0,0,1,162.4,174.1H267.1m0-.95H162.4a13.68,13.68,0,0,0-13.68,13.68V263.1a13.69,13.69,0,0,0,13.68,13.68H267.1a13.69,13.69,0,0,0,13.69-13.68V186.83a13.68,13.68,0,0,0-13.69-13.68Z"/><path class="cls-12" d="M271.79,161.63H157.72a9,9,0,0,0-9,9v15.53H280.79V170.62A9,9,0,0,0,271.79,161.63Z"/><text class="cls-4" transform="translate(180.39 177.57)">PredictPoses</text><rect class="cls-1" x="296.42" y="173.63" width="131.1" height="102.67" rx="13.2"/><path class="cls-2" d="M414.32,174.1A12.74,12.74,0,0,1,427,186.83V263.1a12.74,12.74,0,0,1-12.72,12.72H309.62a12.74,12.74,0,0,1-12.73-12.72V186.83a12.74,12.74,0,0,1,12.73-12.73h104.7m0-.95H309.62a13.67,13.67,0,0,0-13.68,13.68V263.1a13.68,13.68,0,0,0,13.68,13.68h104.7A13.69,13.69,0,0,0,428,263.1V186.83a13.68,13.68,0,0,0-13.68-13.68Z"/><path class="cls-12" d="M419,161.63H304.93a9,9,0,0,0-9,9v15.53H428V170.62A9,9,0,0,0,419,161.63Z"/><text class="cls-4" transform="translate(306.79 177.57)">PredictPoseIdentities</text><text class="cls-15" transform="translate(10 200.21)"><tspan class="cls-16">R</tspan><tspan class="cls-17" x="6.07" y="0">e</tspan><tspan x="11.09" y="0">turns </tspan><tspan class="cls-18" x="35.59" y="0">multiple:</tspan><tspan class="cls-19"><tspan class="cls-20" x="0" y="12">	</tspan><tspan class="cls-26" x="36" y="12">Centroid</tspan></tspan><tspan class="cls-21"><tspan x="0" y="48">Implements:</tspan></tspan><tspan class="cls-19"><tspan class="cls-20" x="0" y="60">	</tspan><tspan class="cls-23" x="36" y="60">c</tspan><tspan x="39.97" y="60">e</tspan><tspan class="cls-28" x="44.59" y="60">n</tspan><tspan x="49.53" y="60">t</tspan><tspan class="cls-29" x="52.71" y="60">r</tspan><tspan x="55.74" y="60">oid</tspan></tspan></text><text class="cls-15" transform="translate(158.72 200.21)"><tspan class="cls-16">R</tspan><tspan class="cls-17" x="6.07" y="0">e</tspan><tspan x="11.09" y="0">turns</tspan><tspan class="cls-22" x="33.39" y="0" xml:space="preserve"> multiple:</tspan><tspan class="cls-19"><tspan class="cls-20" x="0" y="12">	</tspan><tspan class="cls-26" x="36" y="12">Centroid</tspan><tspan class="cls-20" x="0" y="24">	</tspan><tspan x="36" y="24">Pose</tspan></tspan><tspan class="cls-21"><tspan x="0" y="48">Implements:</tspan></tspan><tspan class="cls-19"><tspan class="cls-20" x="0" y="60">	</tspan><tspan x="36" y="60">top-d</tspan><tspan class="cls-16" x="57.48" y="60">o</tspan><tspan x="62.33" y="60">wn-model</tspan></tspan></text><text class="cls-15" transform="translate(305.94 200.21)"><tspan class="cls-16">R</tspan><tspan class="cls-17" x="6.07" y="0">e</tspan><tspan x="11.09" y="0">turns</tspan><tspan class="cls-30" x="33.39" y="0"> </tspan><tspan class="cls-18" x="35.59" y="0">multiple:</tspan><tspan class="cls-22"><tspan class="cls-20" x="0" y="12">	</tspan><tspan class="cls-31" x="36" y="12">Centroid</tspan></tspan><tspan class="cls-19"><tspan class="cls-20" x="0" y="24">	</tspan><tspan x="36" y="24">Pose</tspan><tspan class="cls-20" x="0" y="36">	</tspan><tspan class="cls-36" x="36" y="36">Identity</tspan></tspan><tspan class="cls-21"><tspan x="0" y="48">Implements:</tspan></tspan><tspan class="cls-19"><tspan class="cls-20" x="0" y="60">	</tspan><tspan x="36" y="60">top-d</tspan><tspan class="cls-16" x="57.48" y="60">o</tspan><tspan x="62.33" y="60">wn-id-model</tspan></tspan></text><line class="cls-5" x1="366.16" y1="57.67" x2="366.16" y2="72.9"/></svg>