<?xml version="1.0" encoding="UTF-8" standalone="no"?>
<!-- Created with Inkscape (http://www.inkscape.org/) -->

<svg
   width="38pt"
   height="38pt"
   id="svg2985"
   version="1.1"
   inkscape:version="1.1.2 (b8e25be833, 2022-02-05)"
   sodipodi:docname="logo.svg"
   inkscape:export-filename="Bonsai.png"
   inkscape:export-xdpi="1034.1727"
   inkscape:export-ydpi="1034.1727"
   xmlns:inkscape="http://www.inkscape.org/namespaces/inkscape"
   xmlns:sodipodi="http://sodipodi.sourceforge.net/DTD/sodipodi-0.dtd"
   xmlns="http://www.w3.org/2000/svg"
   xmlns:svg="http://www.w3.org/2000/svg"
   xmlns:rdf="http://www.w3.org/1999/02/22-rdf-syntax-ns#"
   xmlns:cc="http://creativecommons.org/ns#"
   xmlns:dc="http://purl.org/dc/elements/1.1/">
  <defs
     id="defs2987" />
  <sodipodi:namedview
     id="base"
     pagecolor="#474747"
     bordercolor="#666666"
     borderopacity="1.0"
     inkscape:pageopacity="0"
     inkscape:pageshadow="2"
     inkscape:zoom="8"
     inkscape:cx="31.25"
     inkscape:cy="15.625"
     inkscape:document-units="mm"
     inkscape:current-layer="layer2"
     showgrid="false"
     inkscape:window-width="2560"
     inkscape:window-height="1334"
     inkscape:window-x="-11"
     inkscape:window-y="-11"
     inkscape:window-maximized="1"
     units="pt"
     showguides="true"
     inkscape:guide-bbox="true"
     fit-margin-top="0"
     fit-margin-left="0"
     fit-margin-right="0"
     fit-margin-bottom="0"
     inkscape:pagecheckerboard="0">
    <sodipodi:guide
       orientation="0,1"
       position="-13.519531,39.30529"
       id="guide4444"
       inkscape:locked="false"
       inkscape:label=""
       inkscape:color="rgb(0,0,255)" />
    <sodipodi:guide
       orientation="1,0"
       position="65.25,70.032829"
       id="guide4446"
       inkscape:locked="false"
       inkscape:label=""
       inkscape:color="rgb(0,0,255)" />
  </sodipodi:namedview>
  <metadata
     id="metadata2990">
    <rdf:RDF>
      <cc:Work
         rdf:about="">
        <dc:format>image/svg+xml</dc:format>
        <dc:type
           rdf:resource="http://purl.org/dc/dcmitype/StillImage" />
      </cc:Work>
    </rdf:RDF>
  </metadata>
  <g
     inkscape:groupmode="layer"
     id="layer2"
     inkscape:label="Layer 1"
     transform="translate(50.25,-24.305292)">
    <g
       id="g45"
       transform="translate(-39.916667,34.638642)">
      <circle
         r="15"
         cy="14.999983"
         cx="15"
         id="path1206"
         style="fill:#ec2227;stroke-width:2" />
      <path
         inkscape:connector-curvature="0"
         id="path1082"
         d="m 12.261719,3.3691406 c -1.632041,0 -2.9934449,1.161525 -3.3007815,2.703125 C 8.710026,5.9336656 8.4207229,5.8580406 8.1113281,5.8691406 7.2755851,5.8997406 6.5846829,6.5771094 6.5390625,7.4121094 6.4876112,8.356809 7.2383742,9.138672 8.171875,9.138672 c 0.5054248,0 0.9578506,-0.229544 1.2578125,-0.589844 0.3742256,0.5825 0.9226045,1.043841 1.5722655,1.306641 C 11.000923,9.877269 11,9.897922 11,9.919922 10.544312,9.632822 10.004099,9.466797 9.4257812,9.466797 c -1.6327258,0 -2.9550781,1.322578 -2.9550781,2.955078 0,0.0299 0.0011,0.06044 0.00195,0.08984 -0.2852125,-0.0782 -0.5932818,-0.104147 -0.9121093,-0.06055 -1.0700187,0.1466 -1.8952996,1.051959 -1.9472657,2.130859 -0.023325,0.4864 0.106111,0.941613 0.3457032,1.320313 -0.3629042,0.2369 -0.5934092,0.657559 -0.5585938,1.130859 0.045449,0.6147 0.5542196,1.110878 1.1699219,1.142578 0.7083149,0.0364 1.2950832,-0.52095 1.3046875,-1.21875 0.3003049,-2e-4 0.585597,-0.05972 0.8476562,-0.166015 0.6012959,-0.1626 2.0020288,-0.45296 3.3124999,-0.06836 1.126615,0.3307 1.99755,1.469335 2.013672,1.490235 0.4797,1.004 1.985476,1.669406 2.046875,2.316406 0.188998,1.9949 -4.2806109,2.678681 -6.8085937,3.363281 4.4610777,3.7433 10.9647037,3.665175 15.4257817,-0.07813 0,0 -5.006042,-0.659362 -6.017579,-3.476562 -0.761481,-2.1209 -2.625952,-2.342622 -2.632812,-3.107422 -0.0108,-1.1925 1.995063,-1.2206 2.03125,-2.6875 0.0048,-0.1944 -0.01829,-0.368538 -0.05859,-0.523438 0.641771,-0.0549 1.229048,-0.298681 1.707032,-0.675781 0.0055,0.0112 0.01209,0.022 0.01758,0.0332 -0.381598,0.2893 -0.606551,0.774341 -0.521485,1.306641 0.09313,0.5824 0.568027,1.043947 1.152344,1.123047 0.577113,0.078 1.093542,-0.207104 1.359375,-0.658203 0.387601,0.1416 0.80749,0.21875 1.244141,0.21875 1.763241,0 3.231058,-1.258735 3.554687,-2.927735 0.810875,-0.1285 1.420003,-0.867069 1.341797,-1.730469 -0.06792,-0.7495 -0.669865,-1.360306 -1.417969,-1.441406 -0.266518,-0.0288 -0.520527,0.00946 -0.75,0.097656 -0.664067,-0.7606 -1.639459,-1.242187 -2.728515,-1.242187 -0.975347,0 -1.860515,0.386872 -2.511719,1.013672 -0.423788,-0.6807 -1.095119,-1.1909971 -1.888672,-1.4042971 0.459119,-0.2319 0.775457,-0.7067594 0.777344,-1.2558594 0.0026,-0.7433 -0.552069,-1.3505094 -1.292969,-1.4121094 -0.292931,-0.0245 -0.567772,0.041575 -0.802734,0.171875 -0.551045,-1.1072 -1.692914,-1.8671875 -3.013672,-1.8671875 z m 2.173828,10.6503904 c 0.02487,0.1008 0.04102,0.208219 0.04101,0.324219 0,0.6091 -1.576319,1.168719 -2.259765,2.261719 -0.433736,-0.3517 -0.951681,-0.68871 -1.484375,-0.84961 -0.931615,-0.2817 -2.1433165,-0.177684 -2.8183595,-0.08398 0.090212,-0.1883 0.1560763,-0.392669 0.1914063,-0.605469 0.3978911,0.1994 0.8450727,0.3125 1.3203124,0.3125 0.9592288,0 1.8114928,-0.455962 2.3515628,-1.164062 0.345753,0.2255 0.75766,0.355468 1.201172,0.355468 0.558591,0 1.068743,-0.208181 1.457031,-0.550781 z"
         style="fill:#ffffff;stroke-width:0.171505" />
    </g>
  </g>
</svg>
